<svg width="320" height="239" viewBox="0 0 320 239" fill="none" xmlns="http://www.w3.org/2000/svg">
<path d="M320 209.536H0V209.696H320V209.536Z" fill="#EBEBEB"/>
<path d="M287.936 219.834H266.739V219.994H287.936V219.834Z" fill="#EBEBEB"/>
<path d="M211.981 221.574H206.419V221.734H211.981V221.574Z" fill="#EBEBEB"/>
<path d="M266.099 213.895H253.818V214.055H266.099V213.895Z" fill="#EBEBEB"/>
<path d="M61.2161 214.97H33.5745V215.13H61.2161V214.97Z" fill="#EBEBEB"/>
<path d="M70.9697 214.97H66.9185V215.13H70.9697V214.97Z" fill="#EBEBEB"/>
<path d="M144.096 217.67H84.1409V217.83H144.096V217.67Z" fill="#EBEBEB"/>
<path d="M151.68 180.992H28.1023C27.1342 180.99 26.2064 180.605 25.5224 179.919C24.8385 179.234 24.4543 178.306 24.4543 177.338V3.6224C24.4628 2.65986 24.8506 1.73951 25.5337 1.06126C26.2167 0.383013 27.1398 0.00164889 28.1023 0H151.68C152.649 0 153.579 0.385016 154.264 1.07035C154.949 1.75568 155.334 2.68519 155.334 3.6544V177.338C155.334 178.307 154.949 179.236 154.264 179.922C153.579 180.607 152.649 180.992 151.68 180.992ZM28.1023 0.128C27.1767 0.129696 26.2895 0.498602 25.6356 1.15375C24.9816 1.80889 24.6143 2.69674 24.6143 3.6224V177.338C24.6143 178.263 24.9816 179.151 25.6356 179.806C26.2895 180.461 27.1767 180.83 28.1023 180.832H151.68C152.606 180.83 153.494 180.462 154.149 179.807C154.804 179.152 155.173 178.264 155.174 177.338V3.6224C155.173 2.69615 154.804 1.80832 154.149 1.15335C153.494 0.498394 152.606 0.129692 151.68 0.128H28.1023Z" fill="#EBEBEB"/>
<path d="M290.119 180.992H166.535C165.566 180.99 164.637 180.605 163.952 179.92C163.267 179.235 162.882 178.306 162.88 177.338V3.6224C162.89 2.65927 163.28 1.73893 163.964 1.06086C164.648 0.38279 165.571 0.00163091 166.535 0H290.119C291.08 0.00333088 292.001 0.385439 292.683 1.06351C293.365 1.74157 293.752 2.66096 293.76 3.6224V177.338C293.76 178.305 293.377 179.232 292.694 179.917C292.012 180.602 291.086 180.989 290.119 180.992ZM166.535 0.128C165.608 0.129692 164.72 0.498394 164.065 1.15335C163.411 1.80832 163.042 2.69615 163.04 3.6224V177.338C163.042 178.264 163.411 179.152 164.065 179.807C164.72 180.462 165.608 180.83 166.535 180.832H290.119C291.045 180.83 291.933 180.462 292.588 179.807C293.243 179.152 293.611 178.264 293.613 177.338V3.6224C293.611 2.69615 293.243 1.80832 292.588 1.15335C291.933 0.498394 291.045 0.129692 290.119 0.128H166.535Z" fill="#EBEBEB"/>
<path d="M105.274 6.88013H59.6736V161.575H105.274V6.88013Z" fill="#FAFAFA"/>
<path d="M98.4832 6.88013H95.8207L79.9167 161.575H82.5791L98.4832 6.88013Z" fill="#F5F5F5"/>
<path d="M104.467 7.47534H59.3794V8.83854H104.467V7.47534Z" fill="#E0E0E0"/>
<path d="M104.467 160.218H59.3794V163.136H104.467V160.218Z" fill="#EBEBEB"/>
<path d="M103.718 163.008H61.1135V163.136H103.718V163.008Z" fill="#EBEBEB"/>
<path d="M61.1137 7.47537H103.718V163.008H106.272V5.56177H58.5601V163.008H61.1137V7.47537Z" fill="#EBEBEB"/>
<path d="M156.019 6.88013H110.419V161.575H156.019V6.88013Z" fill="#FAFAFA"/>
<path d="M143.366 6.88013H128.832L112.928 161.575H127.462L143.366 6.88013Z" fill="#F5F5F5"/>
<path d="M156.493 7.47534H110.125V8.83854H156.493V7.47534Z" fill="#E0E0E0"/>
<path d="M156.493 160.218H110.125V163.136H156.493V160.218Z" fill="#EBEBEB"/>
<path d="M154.464 163.008H111.859V163.136H154.464V163.008Z" fill="#EBEBEB"/>
<path d="M111.859 7.47537H154.464V163.008H157.011V5.56177H109.306V163.008H111.859V7.47537Z" fill="#EBEBEB"/>
<path d="M205.478 6.88013H161.158V161.575H205.478V6.88013Z" fill="#FAFAFA"/>
<path d="M186.272 6.88013H183.61L167.706 161.575H170.368L186.272 6.88013Z" fill="#F5F5F5"/>
<path d="M205.958 7.47534H160.87V8.83854H205.958V7.47534Z" fill="#E0E0E0"/>
<path d="M205.958 160.218H160.87V163.136H205.958V160.218Z" fill="#EBEBEB"/>
<path d="M205.21 163.008H162.605V163.136H205.21V163.008Z" fill="#EBEBEB"/>
<path d="M162.605 7.47537H205.203V163.008H207.757V5.56177H160.051V163.008H162.605V7.47537Z" fill="#EBEBEB"/>
<path d="M257.504 6.88013H211.904V161.575H257.504V6.88013Z" fill="#FAFAFA"/>
<path d="M253.043 6.88013H238.509L222.598 161.575H237.139L253.043 6.88013Z" fill="#F5F5F5"/>
<path d="M256.698 7.47534H211.61V8.83854H256.698V7.47534Z" fill="#E0E0E0"/>
<path d="M256.698 160.218H211.61V163.136H256.698V160.218Z" fill="#EBEBEB"/>
<path d="M213.344 7.47537H255.949V163.008H258.502V5.56177H210.797V163.008H213.344V7.47537Z" fill="#EBEBEB"/>
<path d="M255.949 163.008H213.344V163.136H255.949V163.008Z" fill="#EBEBEB"/>
<path d="M94.3616 125.99H74.5664V160.224H94.3616V125.99Z" fill="#EBEBEB"/>
<path d="M90.5602 121.203V129.792H89.005H79.9298H78.3682V121.203H90.5602Z" fill="#EBEBEB"/>
<path d="M90.5601 129.792H93.0945V127.258H90.5601V129.792Z" fill="#FAFAFA"/>
<path d="M85.6575 129.792H88.1919V127.258H85.6575V129.792Z" fill="#FAFAFA"/>
<path d="M80.7488 129.792H83.2832V127.258H80.7488V129.792Z" fill="#FAFAFA"/>
<path d="M75.8401 129.792H78.3745V127.258H75.8401V129.792Z" fill="#F0F0F0"/>
<path d="M90.5601 134.394H93.0945V131.859H90.5601V134.394Z" fill="#F0F0F0"/>
<path d="M85.6575 134.394H88.1919V131.859H85.6575V134.394Z" fill="#F0F0F0"/>
<path d="M80.7488 134.394H83.2832V131.859H80.7488V134.394Z" fill="#FAFAFA"/>
<path d="M75.8401 134.394H78.3745V131.859H75.8401V134.394Z" fill="#FAFAFA"/>
<path d="M90.5601 139.002H93.0945V136.467H90.5601V139.002Z" fill="#F0F0F0"/>
<path d="M85.6575 139.002H88.1919V136.467H85.6575V139.002Z" fill="#FAFAFA"/>
<path d="M80.7488 139.002H83.2832V136.467H80.7488V139.002Z" fill="#FAFAFA"/>
<path d="M85.6575 125.811H88.1919V123.277H85.6575V125.811Z" fill="#FAFAFA"/>
<path d="M80.7488 125.811H83.2832V123.277H80.7488V125.811Z" fill="#F0F0F0"/>
<path d="M75.8401 139.002H78.3745V136.467H75.8401V139.002Z" fill="#F0F0F0"/>
<path d="M90.5601 143.61H93.0945V141.075H90.5601V143.61Z" fill="#FAFAFA"/>
<path d="M85.6575 143.61H88.1919V141.075H85.6575V143.61Z" fill="#F0F0F0"/>
<path d="M80.7488 143.61H83.2832V141.075H80.7488V143.61Z" fill="#F0F0F0"/>
<path d="M75.8401 143.61H78.3745V141.075H75.8401V143.61Z" fill="#FAFAFA"/>
<path d="M90.5601 148.218H93.0945V145.683H90.5601V148.218Z" fill="#F0F0F0"/>
<path d="M85.6575 148.218H88.1919V145.683H85.6575V148.218Z" fill="#FAFAFA"/>
<path d="M80.7488 148.218H83.2832V145.683H80.7488V148.218Z" fill="#FAFAFA"/>
<path d="M75.8401 148.218H78.3745V145.683H75.8401V148.218Z" fill="#F0F0F0"/>
<path d="M90.5601 152.819H93.0945V150.285H90.5601V152.819Z" fill="#F0F0F0"/>
<path d="M85.6575 152.819H88.1919V150.285H85.6575V152.819Z" fill="#FAFAFA"/>
<path d="M80.7488 152.819H83.2832V150.285H80.7488V152.819Z" fill="#F0F0F0"/>
<path d="M75.8401 152.819H78.3745V150.285H75.8401V152.819Z" fill="#FAFAFA"/>
<path d="M90.5601 157.427H93.0945V154.893H90.5601V157.427Z" fill="#FAFAFA"/>
<path d="M85.6575 157.427H88.1919V154.893H85.6575V157.427Z" fill="#FAFAFA"/>
<path d="M80.7488 157.427H83.2832V154.893H80.7488V157.427Z" fill="#F0F0F0"/>
<path d="M75.8401 157.427H78.3745V154.893H75.8401V157.427Z" fill="#F0F0F0"/>
<path d="M233.818 138.458H216.083V160.218H233.818V138.458Z" fill="#F0F0F0"/>
<path d="M217.626 140.877H221.747H222.887H224.019V143.143H222.887H221.747H217.626V140.877Z" fill="#E6E6E6"/>
<path d="M217.626 145.274H221.747H222.887H224.019V147.546H222.887H221.747H217.626V145.274Z" fill="#FAFAFA"/>
<path d="M217.626 149.67H221.747H222.887H224.019V151.942H222.887H221.747H217.626V149.67Z" fill="#E6E6E6"/>
<path d="M217.626 154.067H221.747H223.501H224.019V156.339H223.501H221.747H217.626V154.067Z" fill="#FAFAFA"/>
<path d="M225.875 140.877H230.003H231.136H232.269V143.143H231.136H230.003H225.875V140.877Z" fill="#FAFAFA"/>
<path d="M225.875 145.274H230.003H231.603H232.269V147.546H231.603H230.003H225.875V145.274Z" fill="#FAFAFA"/>
<path d="M225.875 149.67H230.003H231.136H232.269V151.942H231.136H230.003H225.875V149.67Z" fill="#E6E6E6"/>
<path d="M225.875 154.067H230.003H231.136H232.269V156.339H231.136H230.003H225.875V154.067Z" fill="#FAFAFA"/>
<path d="M148.358 146.701H132.243V160.224H148.358V146.701Z" fill="#F0F0F0"/>
<path d="M145.267 150.451H147.328V148.391H145.267V150.451Z" fill="#FAFAFA"/>
<path d="M141.274 150.451H143.334V148.391H141.274V150.451Z" fill="#FAFAFA"/>
<path d="M137.274 150.451H139.334V148.391H137.274V150.451Z" fill="#FAFAFA"/>
<path d="M133.28 150.451H135.341V148.391H133.28V150.451Z" fill="#FAFAFA"/>
<path d="M145.267 154.195H147.328V152.135H145.267V154.195Z" fill="#FAFAFA"/>
<path d="M141.274 154.195H143.334V152.135H141.274V154.195Z" fill="#FAFAFA"/>
<path d="M137.274 154.195H139.334V152.135H137.274V154.195Z" fill="#FAFAFA"/>
<path d="M133.28 154.195H135.341V152.135H133.28V154.195Z" fill="#E6E6E6"/>
<path d="M145.267 157.946H147.328V155.885H145.267V157.946Z" fill="#E6E6E6"/>
<path d="M141.274 157.946H143.334V155.885H141.274V157.946Z" fill="#E6E6E6"/>
<path d="M137.274 157.946H139.334V155.885H137.274V157.946Z" fill="#FAFAFA"/>
<path d="M133.28 157.946H135.341V155.885H133.28V157.946Z" fill="#E6E6E6"/>
<path d="M130.061 136.704H113.946V160.224H130.061V136.704Z" fill="#F0F0F0"/>
<path d="M129.03 137.734H122.969V143.546H129.03V137.734Z" fill="#FAFAFA"/>
<path d="M121.037 137.734H114.976V143.546H121.037V137.734Z" fill="#FAFAFA"/>
<path d="M129.03 145.229H122.969V151.04H129.03V145.229Z" fill="#FAFAFA"/>
<path d="M121.037 145.229H114.976V151.04H121.037V145.229Z" fill="#FAFAFA"/>
<path d="M129.03 152.723H122.969V158.535H129.03V152.723Z" fill="#FAFAFA"/>
<path d="M121.037 152.723H114.976V158.535H121.037V152.723Z" fill="#FAFAFA"/>
<path d="M160 238.439C228.533 238.439 284.09 235.195 284.09 231.194C284.09 227.193 228.533 223.949 160 223.949C91.4672 223.949 35.9104 227.193 35.9104 231.194C35.9104 235.195 91.4672 238.439 160 238.439Z" fill="#F5F5F5"/>
<path d="M284.525 15.7505V156.704L267.565 173.664H169.382V15.7505H284.525Z" fill="#3A0CA3"/>
<path opacity="0.8" d="M284.525 15.7505V156.704L267.565 173.664H169.382V15.7505H284.525Z" fill="white"/>
<path opacity="0.2" d="M267.565 173.664V157.203H284.525L267.897 173.831" fill="black"/>
<path opacity="0.1" d="M212.954 29.4402H181.197C180.75 29.4402 180.322 29.2628 180.007 28.9472C179.691 28.6315 179.514 28.2034 179.514 27.757C179.513 27.5354 179.556 27.3158 179.64 27.1109C179.724 26.9059 179.848 26.7196 180.004 26.5626C180.161 26.4057 180.347 26.2811 180.551 26.1961C180.756 26.1111 180.975 26.0674 181.197 26.0674H212.954C213.401 26.0691 213.829 26.2478 214.144 26.5645C214.46 26.8812 214.637 27.31 214.637 27.757C214.637 28.2034 214.46 28.6315 214.144 28.9472C213.828 29.2628 213.4 29.4402 212.954 29.4402Z" fill="black"/>
<path opacity="0.1" d="M270.553 43.0977H193.997C193.775 43.0977 193.556 43.0539 193.351 42.9689C193.146 42.8839 192.961 42.7594 192.804 42.6024C192.648 42.4454 192.524 42.2591 192.44 42.0542C192.356 41.8492 192.313 41.6296 192.313 41.4081C192.313 40.9616 192.491 40.5335 192.806 40.2179C193.122 39.9022 193.55 39.7249 193.997 39.7249H270.553C271 39.7249 271.428 39.9022 271.744 40.2179C272.059 40.5335 272.237 40.9616 272.237 41.4081C272.237 41.8551 272.06 42.2838 271.744 42.6005C271.429 42.9172 271 43.096 270.553 43.0977Z" fill="black"/>
<path opacity="0.1" d="M270.554 49.7346H181.197C180.75 49.7346 180.322 49.5573 180.007 49.2416C179.691 48.926 179.514 48.4978 179.514 48.0514C179.513 47.8298 179.556 47.6103 179.64 47.4053C179.724 47.2004 179.848 47.014 180.004 46.8571C180.161 46.7001 180.347 46.5755 180.551 46.4906C180.756 46.4056 180.975 46.3618 181.197 46.3618H270.554C271.001 46.3635 271.429 46.5423 271.744 46.8589C272.06 47.1756 272.237 47.6044 272.237 48.0514C272.237 48.4978 272.06 48.926 271.744 49.2416C271.428 49.5573 271 49.7346 270.554 49.7346Z" fill="black"/>
<path opacity="0.1" d="M270.554 57.2353H181.197C180.975 57.2353 180.756 57.1916 180.551 57.1066C180.347 57.0216 180.161 56.8971 180.004 56.7401C179.848 56.5831 179.724 56.3968 179.64 56.1918C179.556 55.9869 179.513 55.7673 179.514 55.5457C179.514 55.0993 179.691 54.6712 180.007 54.3555C180.322 54.0399 180.75 53.8625 181.197 53.8625H270.554C271 53.8625 271.428 54.0399 271.744 54.3555C272.06 54.6712 272.237 55.0993 272.237 55.5457C272.237 55.9927 272.06 56.4215 271.744 56.7382C271.429 57.0549 271.001 57.2336 270.554 57.2353Z" fill="black"/>
<path opacity="0.1" d="M270.554 64.7297H181.197C180.75 64.7297 180.322 64.5523 180.007 64.2367C179.691 63.921 179.514 63.4929 179.514 63.0465C179.514 62.6001 179.691 62.1719 180.007 61.8563C180.322 61.5406 180.75 61.3633 181.197 61.3633H270.554C271 61.3633 271.428 61.5406 271.744 61.8563C272.06 62.1719 272.237 62.6001 272.237 63.0465C272.237 63.4929 272.06 63.921 271.744 64.2367C271.428 64.5523 271 64.7297 270.554 64.7297Z" fill="black"/>
<path opacity="0.1" d="M270.554 72.2304H181.197C180.75 72.2304 180.322 72.0531 180.007 71.7374C179.691 71.4218 179.514 70.9936 179.514 70.5472C179.513 70.3259 179.556 70.1067 179.64 69.9021C179.724 69.6975 179.848 69.5116 180.005 69.3551C180.161 69.1987 180.347 69.0747 180.552 68.9904C180.756 68.9061 180.976 68.8632 181.197 68.864H270.554C271 68.864 271.428 69.0414 271.744 69.357C272.06 69.6727 272.237 70.1008 272.237 70.5472C272.237 70.9936 272.06 71.4218 271.744 71.7374C271.428 72.0531 271 72.2304 270.554 72.2304Z" fill="black"/>
<path opacity="0.1" d="M270.554 79.7314H181.197C180.75 79.7314 180.322 79.5541 180.007 79.2384C179.691 78.9228 179.514 78.4947 179.514 78.0482C179.513 77.8267 179.556 77.6071 179.64 77.4021C179.724 77.1972 179.848 77.0109 180.004 76.8539C180.161 76.6969 180.347 76.5724 180.551 76.4874C180.756 76.4024 180.975 76.3586 181.197 76.3586H270.554C271.001 76.3603 271.429 76.5391 271.744 76.8558C272.06 77.1724 272.237 77.6012 272.237 78.0482C272.237 78.4947 272.06 78.9228 271.744 79.2384C271.428 79.5541 271 79.7314 270.554 79.7314Z" fill="black"/>
<path opacity="0.1" d="M270.56 83.8594H181.197C180.267 83.8594 179.514 84.613 179.514 85.5426V85.549C179.514 86.4786 180.267 87.2322 181.197 87.2322H270.56C271.49 87.2322 272.243 86.4786 272.243 85.549V85.5426C272.243 84.613 271.49 83.8594 270.56 83.8594Z" fill="black"/>
<path opacity="0.1" d="M270.554 94.7202H181.197C180.75 94.7202 180.322 94.5428 180.007 94.2272C179.691 93.9115 179.514 93.4834 179.514 93.037C179.514 92.5905 179.691 92.1624 180.007 91.8468C180.322 91.5311 180.75 91.3538 181.197 91.3538H270.554C271 91.3538 271.428 91.5311 271.744 91.8468C272.06 92.1624 272.237 92.5905 272.237 93.037C272.237 93.4834 272.06 93.9115 271.744 94.2272C271.428 94.5428 271 94.7202 270.554 94.7202Z" fill="black"/>
<path opacity="0.1" d="M270.554 102.227H181.197C180.75 102.227 180.322 102.05 180.007 101.734C179.691 101.419 179.514 100.99 179.514 100.544C179.513 100.323 179.556 100.104 179.64 99.8989C179.724 99.6943 179.848 99.5084 180.005 99.352C180.161 99.1955 180.347 99.0715 180.552 98.9873C180.756 98.903 180.976 98.86 181.197 98.8609H270.554C271 98.8609 271.428 99.0382 271.744 99.3539C272.06 99.6695 272.237 100.098 272.237 100.544C272.237 100.99 272.06 101.419 271.744 101.734C271.428 102.05 271 102.227 270.554 102.227Z" fill="black"/>
<path opacity="0.1" d="M270.554 109.728H181.197C180.75 109.728 180.322 109.551 180.007 109.235C179.691 108.919 179.514 108.491 179.514 108.045C179.513 107.823 179.556 107.604 179.64 107.399C179.724 107.194 179.848 107.007 180.004 106.85C180.161 106.694 180.347 106.569 180.551 106.484C180.756 106.399 180.975 106.355 181.197 106.355H270.554C271.001 106.357 271.429 106.536 271.744 106.852C272.06 107.169 272.237 107.598 272.237 108.045C272.237 108.491 272.06 108.919 271.744 109.235C271.428 109.551 271 109.728 270.554 109.728Z" fill="black"/>
<path opacity="0.1" d="M270.554 117.229H181.197C180.975 117.229 180.756 117.185 180.551 117.1C180.347 117.015 180.161 116.89 180.004 116.734C179.848 116.577 179.724 116.39 179.64 116.185C179.556 115.98 179.513 115.761 179.514 115.539C179.514 115.093 179.691 114.665 180.007 114.349C180.322 114.033 180.75 113.856 181.197 113.856H270.554C271 113.856 271.428 114.033 271.744 114.349C272.06 114.665 272.237 115.093 272.237 115.539C272.237 115.986 272.06 116.415 271.744 116.732C271.429 117.048 271.001 117.227 270.554 117.229Z" fill="black"/>
<path opacity="0.1" d="M219.354 124.723H181.197C180.75 124.723 180.322 124.546 180.007 124.23C179.691 123.915 179.514 123.487 179.514 123.04C179.514 122.594 179.691 122.166 180.007 121.85C180.322 121.534 180.75 121.357 181.197 121.357H219.354C219.8 121.357 220.228 121.534 220.544 121.85C220.86 122.166 221.037 122.594 221.037 123.04C221.037 123.487 220.86 123.915 220.544 124.23C220.228 124.546 219.8 124.723 219.354 124.723Z" fill="black"/>
<path d="M263.68 50.2912L263.558 50.1888C263.213 49.9264 263.014 50.016 262.854 49.5104C262.739 49.1456 262.854 48.736 262.72 48.3584C262.415 47.7084 262.066 47.0798 261.677 46.4768L260.102 43.6416C259.751 43.0138 259.165 42.5508 258.473 42.3541C257.781 42.1574 257.039 42.2429 256.41 42.592L241.914 50.6688C241.856 51.1552 241.453 51.488 241.37 51.9488C241.341 52.085 241.348 52.2262 241.391 52.3587C241.434 52.4911 241.51 52.6101 241.613 52.704C241.45 52.7008 241.293 52.6446 241.165 52.544C240.301 52.064 240.07 51.68 239.181 52.1664C238.797 52.3712 238.419 52.5888 238.042 52.8064L234.202 54.9504L222.17 61.6512L208.09 69.5104L196.358 76.0448C194.758 76.9344 192.819 77.7152 191.392 78.848C191.789 79.0528 191.859 79.3664 191.507 79.6736L190.867 80.256C190.867 80.416 191.098 80.416 191.245 80.352L192.038 80.0128C191.487 80.7129 190.823 81.3163 190.074 81.7984C188.815 82.529 187.463 83.0845 186.054 83.4496L186.733 82.5984C186.784 82.528 186.848 82.4384 186.803 82.3552C186.758 82.272 186.675 82.2656 186.598 82.2592C186.259 82.2208 185.92 82.2592 185.67 82.0096C183.482 83.2896 181.19 84.5056 178.963 85.7472C178.335 86.0987 177.872 86.6847 177.676 87.3768C177.479 88.0689 177.564 88.8108 177.914 89.44L192.531 115.68C192.704 115.991 192.937 116.265 193.215 116.487C193.494 116.708 193.814 116.872 194.157 116.97C194.499 117.067 194.857 117.096 195.211 117.055C195.565 117.014 195.907 116.903 196.218 116.73L200.064 114.56C200.064 114.106 200.422 113.6 200.154 113.184C200.115 113.133 200.091 113.074 200.083 113.011C200.083 112.928 200.16 112.864 200.23 112.819C200.625 112.569 201.076 112.423 201.542 112.397C201.702 112.397 201.914 112.467 201.888 112.621C201.888 112.48 202.714 112.186 202.848 112.141C202.912 112.486 202.675 112.858 203.078 112.928C203.482 112.998 204.096 112.288 204.358 112.16L208.198 110.016L220.358 103.251L233.696 95.8208L242.56 90.88C242.88 90.6944 243.258 90.4768 243.565 90.3232C243.676 89.7363 243.961 89.1965 244.384 88.7744C245.024 88.3328 246.035 88.8192 246.566 88.192C246.669 88.0704 246.733 87.9232 246.822 87.7952C247.001 87.587 247.218 87.4154 247.462 87.2896C247.617 87.1681 247.804 87.0947 248 87.0784C248.192 87.0784 248.397 87.2384 248.371 87.4304C249.69 87.1232 250.88 86.2336 252.045 85.5744C252.467 85.3376 256.173 83.5968 256.16 83.3216C256.109 82.4704 256.627 81.7408 256.602 80.864C256.602 80.6976 256.275 79.584 256.422 79.5008C253.094 81.4848 249.638 83.2896 246.246 85.1712C246.131 85.2416 245.696 85.3888 245.606 85.5168C245.606 85.5168 245.574 85.5744 245.562 85.6064L245.466 85.8176V85.8688C245.328 86.3043 245.165 86.7317 244.979 87.1488C244.979 87.2064 244.256 88.1024 244.198 87.8912C243.917 86.8608 243.558 86.7008 242.771 87.1232L241.645 87.7632L238.067 89.7536L226.016 96.4736L211.814 104.384L199.981 110.976L195.021 113.734C194.031 111.942 193.035 110.153 192.032 108.365L190.112 104.915C189.918 104.437 189.63 104.002 189.267 103.635C188.992 103.43 188.525 103.482 188.282 103.296C187.686 102.842 187.258 102.016 186.694 101.485C186.31 101.126 185.728 100.051 185.888 99.456C186.08 99.5328 186.272 99.616 186.464 99.6736C186.364 99.2795 186.386 98.8642 186.528 98.4832C184.608 95.2512 182.842 91.872 181.005 88.5696L180.883 88.3584L185.363 85.8624L188.634 84.0384C189.306 83.7493 189.949 83.3956 190.554 82.9824C190.97 82.624 191.392 82.176 191.834 81.792C192.13 81.5666 192.452 81.3775 192.794 81.2288L194.003 80.64C194.065 80.6026 194.136 80.5807 194.208 80.576C194.28 80.5839 194.351 80.6011 194.419 80.6272C195.059 80.7616 196.646 79.5776 197.222 79.2576L200.947 77.184L212.186 70.9184L226.189 63.1232L240.205 55.3088L251.482 49.0304L257.242 45.8304L257.51 45.6832L263.738 56.864C264.123 57.6176 264.74 58.2278 265.498 58.6048C265.754 58.688 266.042 58.8672 266.01 59.1296C265.978 59.392 265.594 59.6096 265.683 59.8784C265.773 60.1472 266.266 60.0448 266.381 60.288C266.496 60.5312 266.182 60.928 266.221 61.2608C266.353 61.6592 266.55 62.0332 266.803 62.368L268.614 65.6256C269.626 67.4304 270.63 69.2416 271.648 71.0656L260.576 77.2352C260.631 77.2793 260.676 77.3337 260.71 77.3952L260.768 77.5424C260.988 77.6203 261.202 77.7144 261.408 77.824C261.496 77.8733 261.569 77.946 261.619 78.034C261.669 78.1221 261.693 78.2222 261.69 78.3232C261.688 78.4231 261.66 78.5208 261.608 78.6063C261.556 78.6917 261.483 78.7619 261.395 78.8096L260.717 79.1936C260.693 79.342 260.624 79.4796 260.52 79.5881C260.416 79.6967 260.282 79.7711 260.134 79.8016C260.056 79.8082 259.976 79.8082 259.898 79.8016C259.83 79.8509 259.753 79.8851 259.671 79.9017C259.59 79.9182 259.505 79.9168 259.424 79.8976C259.279 79.853 259.157 79.7543 259.083 79.622C259.009 79.4896 258.989 79.3339 259.027 79.1872C259.054 79.1214 259.088 79.059 259.13 79.0016C259.081 78.9083 259.059 78.8036 259.066 78.6986C259.072 78.5937 259.108 78.4926 259.168 78.4064H258.963C258.848 78.4064 258.746 78.3424 258.637 78.3104C258.061 78.6659 257.613 79.1947 257.357 79.8208C257.329 79.855 257.315 79.8985 257.318 79.9424C257.318 80.032 257.459 80.0384 257.542 80.0768C257.734 80.1664 257.69 80.448 257.594 80.6336C257.498 80.8192 257.382 81.056 257.51 81.2224C257.559 81.2784 257.612 81.3298 257.67 81.376C257.946 81.6896 257.523 82.5984 258.195 82.2272C258.148 82.0295 258.178 81.8213 258.278 81.6448C258.392 81.4666 258.568 81.3367 258.771 81.28C259.269 81.1593 259.777 81.0864 260.288 81.0624L273.632 73.6C274.26 73.2485 274.723 72.6625 274.919 71.9704C275.116 71.2782 275.031 70.5364 274.682 69.9072L274.605 69.7728L268.576 58.9504L265.094 52.6912C264.755 52.096 264.454 51.4752 264.083 50.8864C263.981 50.6679 263.845 50.467 263.68 50.2912Z" fill="#3A0CA3"/>
<path d="M202.022 85.6512C201.581 85.1136 201.715 85.1008 201.632 84.5248C201.632 84.5248 201.632 84.5248 201.632 84.4864L201.581 84.4288L201.504 84.3392C201.203 84.4736 200.902 84.6208 200.602 84.7872L194.707 88.0704L197.082 92.3264C196.749 91.7376 197.926 91.9104 197.971 91.904C198.096 91.8672 198.225 91.8457 198.355 91.84C198.483 91.8672 198.596 91.9429 198.669 92.0512C198.915 92.4816 198.988 92.9896 198.874 93.472C198.803 94.112 199.142 94.752 198.778 95.392C199.091 95.904 201.926 101.062 201.939 101.056L207.834 97.7728C208.173 97.5808 208.979 97.2416 209.178 96.9024C209.376 96.5632 209.062 96.032 209.414 95.872C209.547 95.8234 209.689 95.805 209.83 95.8183C209.97 95.8316 210.106 95.8762 210.227 95.9488C211.35 94.8373 212.072 93.3843 212.279 91.8182C212.486 90.252 212.168 88.6614 211.373 87.296C209.715 84.32 205.952 82.5472 202.656 83.9296C202.426 84.0256 202.733 85.056 202.182 85.1712C202.288 84.9648 202.439 84.7853 202.624 84.6464M206.298 95.36L203.552 96.8896C203.328 96.4864 203.11 96.0832 202.88 95.6928C203.168 96.1792 202.374 96.0256 202.208 95.9168C201.805 95.648 201.696 94.8736 201.683 94.4384C201.674 93.6921 201.452 92.9639 201.043 92.3392C200.399 91.1744 199.759 90.0096 199.123 88.8448L201.869 87.3152C204.429 85.8816 206.989 86.4768 208.371 88.96C209.754 91.4432 208.877 93.9456 206.298 95.36Z" fill="#3A0CA3"/>
<path d="M221.511 74.752C221.651 75.0561 221.691 75.3965 221.626 75.7248C221.594 75.904 221.306 76.3648 221.344 76.48C221.447 76.736 221.549 76.992 221.645 77.248C221.662 77.2899 221.686 77.3288 221.715 77.3632C221.765 77.3963 221.822 77.4142 221.882 77.4144C222.899 77.504 222.855 77.6064 222.919 78.464C222.976 79.2 223.61 79.6224 223.968 80.2624C224.449 81.1033 224.659 82.0726 224.567 83.0372C224.475 84.0017 224.087 84.9142 223.456 85.6492C222.824 86.3843 221.981 86.9058 221.041 87.1423C220.102 87.3787 219.112 87.3184 218.208 86.9696C218.184 86.9928 218.158 87.0142 218.131 87.0336C217.997 87.1014 217.843 87.1195 217.696 87.0848C217.363 86.9906 217.062 86.8083 216.825 86.5571C216.587 86.3058 216.421 85.9951 216.346 85.6576C216.336 85.6069 216.336 85.5548 216.346 85.504C216.165 85.2799 216.004 85.04 215.866 84.7872C215.537 84.2584 215.321 83.6674 215.231 83.0512C215.141 82.435 215.179 81.8068 215.343 81.2061C215.507 80.6053 215.793 80.0449 216.184 79.5598C216.574 79.0748 217.061 78.6756 217.613 78.3872C218.413 77.9308 219.331 77.7214 220.25 77.7856L220.199 77.7088C219.648 76.9792 221.632 76.6848 220.736 76.192C220.359 75.9872 220.423 75.0592 220.327 74.6816C218.873 74.7145 217.45 75.1081 216.186 75.8272C212.09 78.112 210.675 82.6368 212.826 86.496C213.731 88.1563 215.227 89.4153 217.018 90.0224C217.439 90.2058 217.89 90.3099 218.349 90.3296C218.874 90.2848 218.618 90.3296 218.842 90.016C219.066 89.7024 218.931 89.568 219.271 89.2352C219.61 88.9024 220.007 88.704 220.077 88.192C220.077 88.4224 220.333 88.5888 220.333 88.832C220.333 88.9024 220.333 88.9728 220.333 89.0368C220.347 89.1205 220.384 89.1984 220.442 89.2608C220.659 89.5552 221.024 89.9008 221.031 90.24C221.967 90.0847 222.866 89.7547 223.68 89.2672C227.757 86.9952 229.203 82.4768 227.04 78.6048C225.92 76.6272 223.815 74.88 221.511 74.752Z" fill="#3A0CA3"/>
<path d="M234.598 65.8433L238.989 73.7217L228.147 69.4337L225.664 70.8225C227.341 73.8305 229.12 76.8065 230.694 79.8721C230.803 79.5393 231.059 79.4753 231.366 79.4305C231.942 79.3537 231.923 79.6417 232.237 80.2113C232.275 80.2817 232.32 80.3521 232.39 80.3649C232.461 80.3777 232.602 80.2625 232.717 80.2753C232.832 80.2881 232.877 80.4289 232.845 80.5377C232.804 80.6443 232.751 80.7454 232.685 80.8385C232.499 81.1905 232.806 81.4145 232.768 81.7345C232.768 81.9009 232.211 82.5793 232.275 82.6945L232.915 83.7953L235.885 82.1441L235.091 80.7233H234.944C234.08 80.8385 234.464 79.7057 234.272 79.2385C233.961 78.5767 233.609 77.9354 233.216 77.3185L231.469 74.2401L240.282 77.7089C240.259 77.4558 240.289 77.2007 240.371 76.9601C240.442 76.8257 241.011 76.5761 241.011 76.4481C241.044 76.8609 241.237 77.2444 241.549 77.5169C241.888 77.8177 241.888 77.7729 241.824 78.3041L242.349 78.5153L244.819 77.1393L237.587 64.1665L234.598 65.8433Z" fill="#3A0CA3"/>
<path d="M249.517 71.3792L247.84 68.3776L253.869 65.0176L252.589 62.6816L246.566 66.0416L244.998 63.2192L249.069 60.9536C249.241 60.7319 249.459 60.5506 249.709 60.4224C249.835 60.3575 249.981 60.3415 250.118 60.3776L251.84 59.424C251.84 59.424 250.618 57.2416 250.502 57.0112C249.914 57.28 250.502 58.0224 249.907 58.3808C250.029 58.5088 250.208 58.9632 249.907 59.0208C249.734 59.0208 249.606 58.8032 249.434 58.8224C249.261 58.8416 249.254 58.9248 249.165 58.8992C249.138 58.8916 249.113 58.8778 249.091 58.8589C249.07 58.84 249.054 58.8166 249.043 58.7904C248.96 58.5974 248.855 58.4148 248.73 58.2464C248.326 57.856 244.646 60.3072 244.134 60.5952L240.71 62.5152L247.936 75.488L250.822 73.8816L250.88 73.8048C251.091 73.536 251.296 73.2608 251.52 73.0112C251.611 72.9248 251.727 72.87 251.852 72.855C251.976 72.84 252.102 72.8656 252.211 72.928C252.263 72.9549 252.309 72.9919 252.346 73.0368L257.984 69.8944L256.64 67.4816L249.517 71.3792Z" fill="#3A0CA3"/>
<path d="M257.216 209.415C257.216 209.415 253.005 200.237 257.811 191.181C262.618 182.125 264.019 179.994 260.954 178.144C257.888 176.295 256.474 185.383 256.474 185.383C256.474 185.383 253.914 179.123 256.019 172.583C258.125 166.042 259.494 155.367 256.582 154.221C253.67 153.075 256.026 167.527 253.498 172.455C252.209 168.995 251.376 165.383 251.021 161.709C250.675 156.448 251.219 148.051 248.915 145.895C246.611 143.738 245.146 145.255 247.405 156.839C248.763 163.777 249.514 170.82 249.651 177.888C249.651 177.888 244.653 162.656 241.331 162.215C238.01 161.773 237.984 166.695 240.858 170.976C243.731 175.258 249.235 182.912 250.138 186.88C250.138 186.88 244.659 175.424 239.725 178.931C234.79 182.439 244.019 189.37 248.128 191.872C252.237 194.375 255.098 210.048 255.098 210.048L257.216 209.415Z" fill="#3A0CA3"/>
<path opacity="0.2" d="M257.216 209.415C257.216 209.415 253.005 200.237 257.811 191.181C262.618 182.125 264.019 179.994 260.954 178.144C257.888 176.295 256.474 185.383 256.474 185.383C256.474 185.383 253.914 179.123 256.019 172.583C258.125 166.042 259.494 155.367 256.582 154.221C253.67 153.075 256.026 167.527 253.498 172.455C252.209 168.995 251.376 165.383 251.021 161.709C250.675 156.448 251.219 148.051 248.915 145.895C246.611 143.738 245.146 145.255 247.405 156.839C248.763 163.777 249.514 170.82 249.651 177.888C249.651 177.888 244.653 162.656 241.331 162.215C238.01 161.773 237.984 166.695 240.858 170.976C243.731 175.258 249.235 182.912 250.138 186.88C250.138 186.88 244.659 175.424 239.725 178.931C234.79 182.439 244.019 189.37 248.128 191.872C252.237 194.375 255.098 210.048 255.098 210.048L257.216 209.415Z" fill="black"/>
<path d="M253.888 213.184C253.888 213.184 257.99 203.936 253.075 194.957C248.16 185.978 246.733 183.866 249.779 181.965C252.826 180.064 254.336 189.139 254.336 189.139C254.336 189.139 256.845 182.848 254.637 176.339C252.429 169.83 250.957 159.174 253.856 157.99C256.755 156.806 254.573 171.29 257.158 176.173C258.407 172.698 259.194 169.075 259.501 165.395C259.789 160.128 259.142 151.738 261.421 149.549C263.699 147.36 265.19 148.832 263.066 160.474C261.792 167.428 261.126 174.479 261.075 181.549C261.075 181.549 265.888 166.246 269.235 165.754C272.582 165.261 272.634 170.189 269.818 174.509C267.002 178.829 261.562 186.573 260.698 190.509C260.698 190.509 266.042 178.989 271.014 182.413C275.987 185.837 266.848 192.909 262.771 195.469C258.694 198.029 256 213.76 256 213.76L253.888 213.184Z" fill="#3A0CA3"/>
<path d="M272.793 206.592H238.938L241.677 230.822H270.054L272.793 206.592Z" fill="#263238"/>
<path d="M99.6033 54.24H77.2609C76.4003 54.24 75.575 54.5819 74.9665 55.1904C74.358 55.7989 74.0161 56.6242 74.0161 57.4848V79.2064C74.0161 80.067 74.358 80.8923 74.9665 81.5008C75.575 82.1093 76.4003 82.4512 77.2609 82.4512H84.4097L79.5969 88.992L87.9169 82.4512H99.5969C100.457 82.4512 101.283 82.1093 101.891 81.5008C102.5 80.8923 102.842 80.067 102.842 79.2064V57.4848C102.842 56.6253 102.501 55.801 101.894 55.1926C101.286 54.5843 100.463 54.2417 99.6033 54.24Z" fill="#3A0CA3"/>
<path opacity="0.6" d="M99.6033 54.24H77.2609C76.4003 54.24 75.575 54.5819 74.9665 55.1904C74.358 55.7989 74.0161 56.6242 74.0161 57.4848V79.2064C74.0161 80.067 74.358 80.8923 74.9665 81.5008C75.575 82.1093 76.4003 82.4512 77.2609 82.4512H84.4097L79.5969 88.992L87.9169 82.4512H99.5969C100.457 82.4512 101.283 82.1093 101.891 81.5008C102.5 80.8923 102.842 80.067 102.842 79.2064V57.4848C102.842 56.6253 102.501 55.801 101.894 55.1926C101.286 54.5843 100.463 54.2417 99.6033 54.24Z" fill="white"/>
<path d="M88.4353 78.4897C94.0376 78.4897 98.5793 73.948 98.5793 68.3457C98.5793 62.7433 94.0376 58.2017 88.4353 58.2017C82.8329 58.2017 78.2913 62.7433 78.2913 68.3457C78.2913 73.948 82.8329 78.4897 88.4353 78.4897Z" fill="#3A0CA3"/>
<path opacity="0.2" d="M96.897 70.3372C98.0004 65.6621 95.105 60.9777 90.4299 59.8743C85.7548 58.7709 81.0703 61.6663 79.9669 66.3414C78.8635 71.0165 81.7589 75.7009 86.434 76.8043C91.1091 77.9077 95.7935 75.0123 96.897 70.3372Z" fill="black"/>
<path d="M87.3536 72.4993C87.2358 72.5019 87.1186 72.4811 87.0088 72.4383C86.8989 72.3955 86.7986 72.3314 86.7136 72.2497L83.0208 68.6337C82.8511 68.4691 82.7537 68.2437 82.7501 68.0073C82.7465 67.7708 82.837 67.5427 83.0016 67.3729C83.1663 67.2032 83.3916 67.1058 83.6281 67.1022C83.8645 67.0986 84.0927 67.1891 84.2624 67.3537L87.2896 70.3169L92.5248 64.4737C92.6854 64.3119 92.9018 64.2179 93.1297 64.2111C93.3575 64.2043 93.5792 64.2851 93.7491 64.437C93.9191 64.5889 94.0242 64.8002 94.0429 65.0273C94.0616 65.2544 93.9924 65.4801 93.8496 65.6577L87.9936 72.1921C87.9129 72.2825 87.8143 72.3552 87.7042 72.4059C87.5941 72.4565 87.4748 72.484 87.3536 72.4865V72.4993Z" fill="white"/>
<path d="M59.4559 216.269L77.8943 214.451V193.658H85.2031V214.445L103.718 216.269C104.606 216.355 105.429 216.768 106.028 217.429C106.626 218.089 106.958 218.949 106.957 219.84V222.611H56.2175V219.84C56.2166 218.949 56.5478 218.089 57.1466 217.429C57.7454 216.768 58.5687 216.355 59.4559 216.269Z" fill="#263238"/>
<path opacity="0.1" d="M59.4559 216.269L77.8943 214.451V193.658H85.2031V214.445L103.718 216.269C104.606 216.355 105.429 216.768 106.028 217.429C106.626 218.089 106.958 218.949 106.957 219.84V222.611H56.2175V219.84C56.2166 218.949 56.5478 218.089 57.1466 217.429C57.7454 216.768 58.5687 216.355 59.4559 216.269Z" fill="white"/>
<path d="M105.005 230.823C107.645 230.823 109.786 228.682 109.786 226.042C109.786 223.401 107.645 221.261 105.005 221.261C102.365 221.261 100.224 223.401 100.224 226.042C100.224 228.682 102.365 230.823 105.005 230.823Z" fill="#263238"/>
<path d="M58.1695 230.823C60.8098 230.823 62.9503 228.682 62.9503 226.042C62.9503 223.401 60.8098 221.261 58.1695 221.261C55.5291 221.261 53.3887 223.401 53.3887 226.042C53.3887 228.682 55.5291 230.823 58.1695 230.823Z" fill="#263238"/>
<path d="M83.8146 199.226H79.2578C78.5567 199.226 77.8844 198.947 77.3887 198.452C76.893 197.956 76.6146 197.284 76.6146 196.583V176.141H86.4578V196.583C86.4578 197.284 86.1793 197.956 85.6836 198.452C85.1879 198.947 84.5156 199.226 83.8146 199.226Z" fill="#263238"/>
<path opacity="0.2" d="M83.8146 199.226H79.2578C78.5567 199.226 77.8844 198.947 77.3887 198.452C76.893 197.956 76.6146 197.284 76.6146 196.583V176.141H86.4578V196.583C86.4578 197.284 86.1793 197.956 85.6836 198.452C85.1879 198.947 84.5156 199.226 83.8146 199.226Z" fill="white"/>
<path d="M56.0256 136.077C56.0256 136.077 61.504 170.24 72.32 176.147H61.3248C61.3248 176.147 50.4448 164.499 47.168 136.077H56.0256Z" fill="#263238"/>
<path opacity="0.1" d="M56.0256 136.077C56.0256 136.077 61.504 170.24 72.32 176.147H61.3248C61.3248 176.147 50.4448 164.499 47.168 136.077H56.0256Z" fill="white"/>
<path d="M60.8001 171.315H103.629C104.478 171.315 105.292 171.652 105.892 172.252C106.492 172.853 106.829 173.666 106.829 174.515V178.797H57.6001V174.515C57.6001 173.666 57.9372 172.853 58.5374 172.252C59.1375 171.652 59.9514 171.315 60.8001 171.315Z" fill="#3A0CA3"/>
<path d="M107.571 175.053H56.8128C56.1023 175.053 55.5264 175.629 55.5264 176.339V177.504C55.5264 178.215 56.1023 178.791 56.8128 178.791H107.571C108.282 178.791 108.858 178.215 108.858 177.504V176.339C108.858 175.629 108.282 175.053 107.571 175.053Z" fill="#263238"/>
<path opacity="0.6" d="M107.571 175.053H56.8128C56.1023 175.053 55.5264 175.629 55.5264 176.339V177.504C55.5264 178.215 56.1023 178.791 56.8128 178.791H107.571C108.282 178.791 108.858 178.215 108.858 177.504V176.339C108.858 175.629 108.282 175.053 107.571 175.053Z" fill="white"/>
<path d="M45.8687 143.027H63.4623C68.6207 143.027 71.9679 138.893 70.9439 133.792L69.5743 126.982C68.5503 121.862 63.5391 117.754 58.3871 117.754H40.7935C35.6351 117.754 32.2879 121.888 33.3119 126.982L34.6815 133.792C35.7055 138.88 40.7103 143.027 45.8687 143.027Z" fill="#3A0CA3"/>
<path d="M139.226 200.25L135.194 201.83L132.295 196.365L129.658 191.392L134.125 188.717L136.826 194.816L139.226 200.25Z" fill="#E4897B"/>
<path opacity="0.2" d="M136.826 194.816L132.295 196.365L129.658 191.392L134.125 188.717L136.826 194.816Z" fill="black"/>
<path d="M135.987 191.834L130.502 194.778C130.502 194.778 109.773 158.33 106.586 158.637C103.398 158.944 73.1585 178.208 63.9361 171.091C54.7137 163.974 63.6865 142.547 63.6865 142.547C63.6865 142.547 82.7648 137.094 84.8064 141.267C85.3445 142.517 85.802 143.799 86.176 145.107C86.5792 146.419 86.8864 147.526 86.8864 147.526C87.4688 147.29 106.31 139.565 114.72 143.686C123.302 147.923 135.987 191.834 135.987 191.834Z" fill="#263238"/>
<path opacity="0.3" d="M135.987 191.834L130.502 194.778C130.502 194.778 109.773 158.33 106.586 158.637C103.398 158.944 73.1585 178.208 63.9361 171.091C54.7137 163.974 63.6865 142.547 63.6865 142.547C63.6865 142.547 82.7648 137.094 84.8064 141.267C85.3445 142.517 85.802 143.799 86.176 145.107C86.5792 146.419 86.8864 147.526 86.8864 147.526C87.4688 147.29 106.31 139.565 114.72 143.686C123.302 147.923 135.987 191.834 135.987 191.834Z" fill="white"/>
<path d="M106.189 221.555L101.888 221.062L101.862 214.995L101.856 209.427L107.059 209.184L106.598 215.731L106.189 221.555Z" fill="#E4897B"/>
<path opacity="0.2" d="M106.586 215.866L101.85 215.11V209.485L107.053 209.21L106.586 215.866Z" fill="black"/>
<path d="M127.821 192.966L135.846 188.947L136.685 192.352L130.605 195.488L127.821 192.966Z" fill="#3A0CA3"/>
<path d="M78.1824 171.149C78.1824 171.149 79.5008 171.002 99.7824 167.245C99.7824 167.245 100.243 193.178 101.203 212.512L107.45 212.711C107.45 212.711 116.41 169.831 115.354 163.328C114.298 156.826 106.592 155.975 106.592 155.975C106.592 155.975 93.2096 166.4 78.1824 171.149Z" fill="#263238"/>
<path opacity="0.4" d="M78.1824 171.149C78.1824 171.149 79.5008 171.002 99.7824 167.245C99.7824 167.245 100.243 193.178 101.203 212.512L107.45 212.711C107.45 212.711 116.41 169.831 115.354 163.328C114.298 156.826 106.592 155.975 106.592 155.975C106.592 155.975 93.2096 166.4 78.1824 171.149Z" fill="white"/>
<path opacity="0.3" d="M78.1824 171.149C78.1824 171.149 79.5008 171.002 99.7824 167.245C99.7824 167.245 100.243 193.178 101.203 212.512L107.45 212.711C107.45 212.711 116.41 169.831 115.354 163.328C114.298 156.826 106.592 155.975 106.592 155.975C106.592 155.975 93.2096 166.4 78.1824 171.149Z" fill="black"/>
<path d="M100.058 210.784L108.576 210.586L107.411 214.093L100.499 214.157L100.058 210.784Z" fill="#3A0CA3"/>
<path opacity="0.3" d="M86.9119 147.539L75.8591 151.475C75.8591 151.475 81.6703 147.136 86.2015 145.12C86.6047 146.432 86.9119 147.539 86.9119 147.539Z" fill="black"/>
<path d="M62.4065 141.229L62.8161 144.295L83.5329 139.898L83.0529 136.275L62.4065 141.229Z" fill="#263238"/>
<path opacity="0.2" d="M62.4065 141.229L62.8161 144.295L83.5329 139.898L83.0529 136.275L62.4065 141.229Z" fill="black"/>
<path d="M69.2705 139.001L68.2385 139.193L69.2133 144.447L70.2453 144.256L69.2705 139.001Z" fill="#263238"/>
<path d="M78.3042 137.672L73.7839 138.69L74.5564 142.118L79.0766 141.099L78.3042 137.672Z" fill="white"/>
<path d="M81.2107 135.531L80.1821 135.72L81.144 140.957L82.1727 140.768L81.2107 135.531Z" fill="#263238"/>
<path opacity="0.3" d="M69.2705 139.001L68.2385 139.193L69.2133 144.447L70.2453 144.256L69.2705 139.001Z" fill="white"/>
<path opacity="0.3" d="M81.2107 135.531L80.1821 135.72L81.144 140.957L82.1727 140.768L81.2107 135.531Z" fill="white"/>
<path d="M147.238 207.405C146.566 207.198 145.86 207.118 145.158 207.168C145.158 207.168 142.554 206.08 139.398 200.902L136.71 201.254C136.258 201.322 135.837 201.528 135.505 201.842C135.174 202.157 134.946 202.566 134.854 203.014C134.835 203.142 134.835 203.271 134.854 203.398C134.97 204.048 135.128 204.689 135.328 205.318C136.017 207.399 136.831 209.435 137.766 211.418L138.202 211.238L136.813 207.36C136.352 206.035 137.958 207.155 138.81 208.435C139.661 209.715 140.87 210.957 143.744 209.869C147.085 208.563 148.41 207.872 147.238 207.405Z" fill="#263238"/>
<path d="M138.726 199.527C138.726 199.527 143.04 206.08 145.158 207.168C145.158 207.168 142.784 209.088 139.616 206.003C135.526 202.042 134.842 203.399 134.842 203.399C134.805 202.623 134.842 201.845 134.95 201.075C135.277 199.571 138.726 199.527 138.726 199.527Z" fill="#E4897B"/>
<path d="M112.64 229.184C112.027 228.831 111.354 228.592 110.656 228.48C110.656 228.48 108.384 226.81 106.56 221.037L103.865 220.743C103.408 220.699 102.949 220.799 102.551 221.029C102.153 221.258 101.836 221.605 101.645 222.023C101.587 222.137 101.548 222.26 101.529 222.387C101.485 223.041 101.485 223.698 101.529 224.352C101.703 226.536 102.011 228.708 102.451 230.855L102.918 230.784L102.502 226.675C102.368 225.28 103.667 226.752 104.192 228.199C104.717 229.645 105.593 231.136 108.64 230.759C112.198 230.279 113.645 229.92 112.64 229.184Z" fill="#263238"/>
<path d="M106.24 219.52C106.24 219.52 108.877 226.912 110.675 228.48C110.675 228.48 107.917 229.76 105.555 226.035C102.515 221.216 101.536 222.375 101.536 222.375C101.679 221.614 101.894 220.868 102.176 220.147C102.855 218.739 106.24 219.52 106.24 219.52Z" fill="#E4897B"/>
<path d="M57.8944 88.96L52.48 90.048C52.2685 90.2262 52.0186 90.353 51.7499 90.4185C51.4812 90.484 51.201 90.4864 50.9312 90.4256C49.3184 89.7856 46.9952 87.9104 46.7008 87.2256C46.2656 86.2592 46.7008 83.424 47.84 82.912C48.9792 82.4 52.9024 87.136 52.9024 87.136L58.72 85.824L57.8944 88.96Z" fill="#E4897B"/>
<path d="M74.9697 106.957C74.9697 106.957 74.4769 89.4146 72.4481 88.6658C70.4193 87.917 55.1681 90.0098 55.1681 90.0098L54.7969 86.0034C54.7969 86.0034 72.5441 83.2706 75.9809 84.8898C79.4177 86.509 80.5505 112.653 79.9233 117.69L74.9697 106.957Z" fill="#3A0CA3"/>
<path opacity="0.6" d="M74.9697 106.957C74.9697 106.957 74.4769 89.4146 72.4481 88.6658C70.4193 87.917 55.1681 90.0098 55.1681 90.0098L54.7969 86.0034C54.7969 86.0034 72.5441 83.2706 75.9809 84.8898C79.4177 86.509 80.5505 112.653 79.9233 117.69L74.9697 106.957Z" fill="white"/>
<path d="M55.4303 90.3935L54.3679 85.9903L55.8911 85.4399L56.8575 90.5279L55.4303 90.3935Z" fill="#3A0CA3"/>
<path opacity="0.7" d="M55.4303 90.3935L54.3679 85.9903L55.8911 85.4399L56.8575 90.5279L55.4303 90.3935Z" fill="white"/>
<path d="M74.8799 104.768C74.8799 104.768 73.5167 110.106 66.9503 111.808C60.3839 113.51 53.1199 109.062 53.1199 109.062L54.5663 121.798L62.6047 141.862L83.1487 136.506C83.1487 136.506 81.9199 113.165 74.8799 104.768Z" fill="#3A0CA3"/>
<path opacity="0.7" d="M74.8799 104.768C74.8799 104.768 73.5167 110.106 66.9503 111.808C60.3839 113.51 53.1199 109.062 53.1199 109.062L54.5663 121.798L62.6047 141.862L83.1487 136.506C83.1487 136.506 81.9199 113.165 74.8799 104.768Z" fill="white"/>
<path opacity="0.6" d="M78.4505 125.933L80.8552 125.174C81.1215 125.09 81.2693 124.806 81.1853 124.54L79.7526 119.999C79.6686 119.732 79.3847 119.585 79.1184 119.669L76.7136 120.427C76.4473 120.511 76.2995 120.795 76.3835 121.062L77.8162 125.602C77.9002 125.869 78.1842 126.017 78.4505 125.933Z" fill="#3A0CA3"/>
<path opacity="0.2" d="M77.9607 124.548L80.6951 123.686L79.5147 119.944L76.7803 120.807L77.9607 124.548Z" fill="black"/>
<path d="M77.8691 118.592L77.2649 118.782L77.96 120.986L78.5643 120.795L77.8691 118.592Z" fill="#263238"/>
<path d="M60.9153 84.832C55.8529 84.832 52.5121 90.1952 53.6961 98.7008C54.8801 107.206 59.6225 109.658 59.6225 109.658L59.3217 107.603C64.5864 108.798 70.0143 109.101 75.3793 108.499C75.3793 108.499 72.9345 101.562 73.7281 94.4768C73.7281 94.4768 75.3345 84.8192 60.9153 84.832Z" fill="#263238"/>
<path opacity="0.2" d="M70.9696 110.08L73.0369 117.76L69.4017 114.989C69.4017 114.989 72.9409 123.079 73.8817 127.789C73.8817 127.789 70.8224 119.77 68.1856 115.373L66.6432 119.776L60.4417 113.459C60.4417 113.459 65.92 109.261 70.9696 110.08Z" fill="black"/>
<path d="M67.9488 112.557L61.6383 112.749C64.4351 109.171 59.3792 102.938 59.3792 102.938L65.6127 104.288C67.0975 110.458 69.664 110.643 69.664 110.643L67.9488 112.557Z" fill="#E4897B"/>
<path opacity="0.2" d="M67.3535 108.717C64.9456 108.516 62.7061 107.4 61.0944 105.6C60.5964 104.675 60.0227 103.793 59.3792 102.963L65.6127 104.32C65.9429 105.873 66.5313 107.359 67.3535 108.717Z" fill="black"/>
<path d="M65.6064 87.4369C71.04 87.8913 72.5504 90.9441 72.48 96.5825C72.3968 103.622 70.4256 108.467 63.7568 106.406C54.6944 103.61 56.576 86.6817 65.6064 87.4369Z" fill="#E4897B"/>
<path d="M68.9919 96.0002C69.3599 96.8489 69.8283 97.6504 70.3871 98.3874C70.2082 98.5973 69.9753 98.7542 69.7135 98.8411C69.4518 98.9279 69.1712 98.9415 68.9023 98.8802L68.9919 96.0002Z" fill="#DE5753"/>
<path d="M65.312 95.0913L66.4896 94.7073C66.4896 94.7073 65.8624 95.6417 65.312 95.0913Z" fill="#263238"/>
<path d="M65.7217 94.957C65.5027 94.8494 65.2521 94.8252 65.0166 94.8887C64.781 94.9523 64.5767 95.0994 64.4417 95.3026C64.6426 95.211 64.8608 95.1636 65.0817 95.1636C65.3025 95.1636 65.5207 95.211 65.7217 95.3026V94.957Z" fill="#263238"/>
<path d="M63.5328 92.3648C63.4723 92.3633 63.4148 92.338 63.3728 92.2944C63.3505 92.2735 63.3328 92.2482 63.3206 92.2201C63.3085 92.192 63.3022 92.1618 63.3022 92.1312C63.3022 92.1006 63.3085 92.0704 63.3206 92.0423C63.3328 92.0142 63.3505 91.989 63.3728 91.968C63.7297 91.6558 64.1543 91.4309 64.613 91.3109C65.0717 91.191 65.552 91.1793 66.016 91.2768C66.0763 91.2895 66.129 91.3257 66.1626 91.3773C66.1962 91.4289 66.2079 91.4918 66.1952 91.552C66.1825 91.6123 66.1463 91.665 66.0947 91.6986C66.0431 91.7322 65.9803 91.7439 65.92 91.7312C65.5328 91.6521 65.1327 91.6611 64.7494 91.7575C64.3661 91.8539 64.0094 92.0352 63.7056 92.288C63.6842 92.3126 63.6576 92.3323 63.6277 92.3455C63.5979 92.3588 63.5655 92.3654 63.5328 92.3648Z" fill="#263238"/>
<path d="M72.0576 92.461C72.0068 92.4629 71.957 92.4471 71.9168 92.4162C71.6607 92.1815 71.3554 92.0068 71.0233 91.9049C70.6911 91.8031 70.3404 91.7766 69.9968 91.8274C69.9673 91.8354 69.9366 91.8375 69.9064 91.8336C69.8762 91.8297 69.847 91.8199 69.8206 91.8048C69.7941 91.7896 69.7709 91.7694 69.7523 91.7453C69.7336 91.7212 69.7199 91.6936 69.712 91.6642C69.704 91.6348 69.7019 91.6041 69.7057 91.5739C69.7096 91.5436 69.7194 91.5144 69.7346 91.488C69.7497 91.4616 69.7699 91.4384 69.7941 91.4197C69.8182 91.4011 69.8457 91.3874 69.8752 91.3794C70.29 91.306 70.7161 91.3285 71.121 91.4449C71.5258 91.5614 71.8987 91.7688 72.2112 92.0514C72.2586 92.0903 72.289 92.146 72.2962 92.2069C72.3034 92.2677 72.2866 92.329 72.2496 92.3778C72.2264 92.4058 72.1969 92.428 72.1635 92.4425C72.1302 92.4569 72.0939 92.4633 72.0576 92.461Z" fill="#263238"/>
<path d="M58.88 96.1024C58.88 96.1024 61.792 91.8528 61.696 88.3712C61.696 88.3712 72.8384 84.864 72.4608 95.8464C72.4608 95.8464 74.3168 86.2464 64.992 85.2288C55.6672 84.2112 54.5856 97.92 59.072 102.4C59.072 102.4 57.0944 98.7648 58.88 96.1024Z" fill="#263238"/>
<path d="M59.6927 97.325C59.6927 96.6913 59.4414 96.0834 58.9939 95.6347C58.5464 95.186 57.9392 94.9331 57.3055 94.9314C55.6031 94.9762 54.5151 98.3682 58.6367 99.5522C59.2255 99.7186 59.6159 99.1618 59.6927 97.325Z" fill="#E4897B"/>
<path d="M68.9471 100.48C68.5485 101.015 68.1912 101.58 67.8783 102.17C67.7695 102.131 67.6543 102.099 67.5455 102.054C66.0415 101.523 65.5167 100.774 65.3951 100.134C65.3378 99.8094 65.3619 99.4751 65.4655 99.1617C65.5188 98.9814 65.5963 98.8091 65.6959 98.6497C66.4779 99.3929 67.4127 99.9564 68.4351 100.301C68.7423 100.416 68.9471 100.48 68.9471 100.48Z" fill="#263238"/>
<path d="M68.4352 100.288L68.1088 100.781C66.688 100.275 65.76 99.7314 65.4656 99.149C65.5189 98.9687 65.5964 98.7964 65.696 98.637C66.478 99.3802 67.4128 99.9437 68.4352 100.288Z" fill="white"/>
<path d="M67.5457 102.055C66.0417 101.523 65.5169 100.775 65.3953 100.135C65.9642 100.344 66.491 100.654 66.9505 101.05C67.2484 101.315 67.4564 101.666 67.5457 102.055Z" fill="#DE5753"/>
<path d="M65.459 87.84C65.459 87.84 62.5214 96.6016 56.9022 96C51.283 95.3984 60.915 84.8128 60.915 84.8128C60.915 84.8128 70.3934 82.1056 74.5214 87.3728C78.6494 92.64 72.4798 95.8336 72.4798 95.8336C72.4798 95.8336 73.4014 88.96 65.459 87.84Z" fill="#263238"/>
<path d="M60.9793 95.296C60.9468 95.2944 60.9154 95.2841 60.8883 95.2661C60.8612 95.248 60.8396 95.223 60.8257 95.1936C60.8111 95.1528 60.8129 95.1079 60.8308 95.0685C60.8488 95.029 60.8814 94.9981 60.9217 94.9824C65.4017 93.2736 65.2993 87.264 65.2993 87.2C65.2975 87.179 65.3001 87.1579 65.3071 87.1381C65.3141 87.1183 65.3252 87.1002 65.3397 87.0851C65.3543 87.0699 65.3719 87.058 65.3914 87.0503C65.411 87.0425 65.4319 87.039 65.4529 87.04C65.4945 87.0412 65.5342 87.0575 65.5648 87.0857C65.5953 87.1139 65.6147 87.1522 65.6193 87.1936C65.6193 87.2576 65.7217 93.4912 61.0369 95.2832L60.9793 95.296Z" fill="#263238"/>
<path d="M70.8289 95.6225L72.0065 95.2449C72.0065 95.2449 71.3729 96.1729 70.8289 95.6225Z" fill="#263238"/>
<path d="M71.2385 95.4881C71.0191 95.3796 70.7675 95.3556 70.5315 95.4205C70.2955 95.4854 70.0916 95.6347 69.9585 95.8401C70.1564 95.7415 70.3733 95.6871 70.5943 95.6805C70.8153 95.6738 71.035 95.7152 71.2385 95.8017V95.4881Z" fill="#263238"/>
<path d="M62.5281 110.163L67.2833 112.583L67.2065 117.402L60.4097 113.44L62.5281 110.163Z" fill="#3A0CA3"/>
<path d="M68.0063 109.255L68.2879 112.179L71.3919 115.463L70.9695 110.061L68.0063 109.255Z" fill="#3A0CA3"/>
<path d="M46.0351 76.1603L44.0511 71.0403C44.0873 70.7666 44.0594 70.4882 43.9694 70.2271C43.8794 69.9661 43.7299 69.7296 43.5327 69.5363C42.1503 68.5059 39.2959 67.5715 38.5791 67.6803C37.5359 67.8339 35.3791 69.7219 35.5647 70.9571C35.7503 72.1923 41.8431 72.9539 41.8431 72.9539L43.8655 78.5667L46.0351 76.1603Z" fill="#E4897B"/>
<path d="M54.5793 121.799C54.5793 121.799 58.4193 118.746 56.8897 112L52.7617 93.3378L45.6705 74.061L42.2017 75.8146C42.2017 75.8146 48.0257 94.6498 48.5633 95.9234C48.8385 96.5634 49.9329 106.336 51.4241 112.883C52.7937 118.912 54.5793 121.799 54.5793 121.799Z" fill="#3A0CA3"/>
<path opacity="0.6" d="M54.5793 121.799C54.5793 121.799 58.4193 118.746 56.8897 112L52.7617 93.3378L45.6705 74.061L42.2017 75.8146C42.2017 75.8146 48.0257 94.6498 48.5633 95.9234C48.8385 96.5634 49.9329 106.336 51.4241 112.883C52.7937 118.912 54.5793 121.799 54.5793 121.799Z" fill="white"/>
<path d="M41.5935 75.2642L45.6447 73.2354L46.5279 74.5858L41.7919 76.685L41.5935 75.2642Z" fill="#3A0CA3"/>
<path opacity="0.7" d="M41.5935 75.2642L45.6447 73.2354L46.5279 74.5858L41.7919 76.685L41.5935 75.2642Z" fill="white"/>
<path opacity="0.6" d="M62.5281 110.163L67.2833 112.583L67.2065 117.402L60.4097 113.44L62.5281 110.163Z" fill="white"/>
<path opacity="0.6" d="M68.0063 109.255L68.2879 112.179L71.3919 115.463L70.9695 110.061L68.0063 109.255Z" fill="white"/>
<path d="M203.046 100.103H183.872V115.002H203.046V100.103Z" fill="white"/>
<path opacity="0.1" d="M203.046 100.103H198.131V115.002H203.046V100.103Z" fill="black"/>
<path d="M182.771 128.16H204.448V101.12H197.466L182.771 108.154V128.16Z" fill="#3A0CA3"/>
<path opacity="0.2" d="M204.448 101.12H197.466V128.16H204.448V101.12Z" fill="black"/>
<path opacity="0.7" d="M195.155 113.485H185.005V118.349H195.155V113.485Z" fill="white"/>
<path opacity="0.7" d="M195.155 119.974H185.005V120.672H195.155V119.974Z" fill="white"/>
<path opacity="0.7" d="M203.77 122.016H198.131V126.144H203.77V122.016Z" fill="white"/>
<path d="M194.899 99.2898H175.725V115.002H194.899V99.2898Z" fill="white"/>
<path opacity="0.1" d="M194.899 99.2898H189.984V115.002H194.899V99.2898Z" fill="black"/>
<path d="M174.624 128.16H196.301V101.12H189.318L174.624 108.154V128.16Z" fill="#3A0CA3"/>
<path opacity="0.2" d="M196.301 101.12H189.318V128.16H196.301V101.12Z" fill="black"/>
<path opacity="0.7" d="M187.008 113.485H176.858V118.349H187.008V113.485Z" fill="white"/>
<path opacity="0.7" d="M187.008 119.974H176.858V120.672H187.008V119.974Z" fill="white"/>
<path opacity="0.7" d="M195.623 122.016H189.984V126.144H195.623V122.016Z" fill="white"/>
<path d="M161.158 230.822H165.082L172.122 132.742H166.918L161.158 230.822Z" fill="#263238"/>
<path opacity="0.1" d="M161.158 230.823H165.082L171.776 137.613L172.122 132.903H166.918L166.643 137.613L161.158 230.823Z" fill="white"/>
<path opacity="0.2" d="M166.643 137.383H171.776L172.122 132.903H166.919L166.643 137.383Z" fill="black"/>
<path d="M132.384 230.822H136.307L136.947 132.742H131.744L132.384 230.822Z" fill="#263238"/>
<path opacity="0.1" d="M131.738 132.903L131.846 148.723L132.378 230.823H136.301L136.838 148.723L136.941 132.903H131.738Z" fill="white"/>
<path opacity="0.2" d="M131.738 132.903L131.846 148.903H136.838L136.941 132.903H131.738Z" fill="black"/>
<path d="M90.7583 230.822H94.6815L101.722 132.742H96.5183L90.7583 230.822Z" fill="#263238"/>
<path opacity="0.1" d="M90.7583 230.823H94.6815L101.382 137.613L101.722 132.903H96.5183L96.2431 137.613L90.7583 230.823Z" fill="white"/>
<path opacity="0.2" d="M96.2432 137.383H101.382L101.722 132.903H96.5184L96.2432 137.383Z" fill="black"/>
<path d="M206.01 230.822H209.933L204.166 132.742H198.963L206.01 230.822Z" fill="#263238"/>
<path opacity="0.1" d="M198.963 132.903L199.315 137.613L206.01 230.823H209.926L204.448 137.613L204.166 132.903H198.963Z" fill="white"/>
<path opacity="0.2" d="M204.166 132.903H198.963L199.315 137.383H204.448L204.166 132.903Z" fill="black"/>
<path d="M206.912 135.2H93.7856C93.6041 135.2 93.4243 135.164 93.2566 135.095C93.0889 135.026 92.9365 134.924 92.8081 134.795C92.6798 134.667 92.5779 134.515 92.5085 134.347C92.439 134.179 92.4032 133.999 92.4032 133.818V130.291H208.294V133.818C208.294 133.999 208.259 134.179 208.189 134.347C208.12 134.515 208.018 134.667 207.89 134.795C207.761 134.924 207.609 135.026 207.441 135.095C207.273 135.164 207.094 135.2 206.912 135.2Z" fill="#3A0CA3"/>
<path opacity="0.4" d="M206.912 135.2H93.7856C93.6041 135.2 93.4243 135.164 93.2566 135.095C93.0889 135.026 92.9365 134.924 92.8081 134.795C92.6798 134.667 92.5779 134.515 92.5085 134.347C92.439 134.179 92.4032 133.999 92.4032 133.818V130.291H208.294V133.818C208.294 133.999 208.259 134.179 208.189 134.347C208.12 134.515 208.018 134.667 207.89 134.795C207.761 134.924 207.609 135.026 207.441 135.095C207.273 135.164 207.094 135.2 206.912 135.2Z" fill="white"/>
<path opacity="0.2" d="M92.4032 132.742H208.294V130.285H92.4032V132.742Z" fill="black"/>
<path d="M89.9713 130.925H210.72C210.902 130.926 211.082 130.891 211.25 130.821C211.418 130.752 211.571 130.65 211.7 130.522C211.828 130.393 211.93 130.241 211.999 130.073C212.068 129.904 212.103 129.724 212.103 129.543C212.103 129.176 211.957 128.824 211.698 128.565C211.438 128.306 211.087 128.16 210.72 128.16H89.9713C89.6041 128.16 89.2518 128.306 88.9915 128.565C88.7313 128.824 88.5842 129.175 88.5825 129.543C88.5825 129.725 88.6185 129.905 88.6884 130.073C88.7582 130.241 88.8606 130.394 88.9897 130.522C89.1187 130.651 89.2719 130.752 89.4403 130.822C89.6088 130.891 89.7892 130.926 89.9713 130.925Z" fill="#3A0CA3"/>
<path opacity="0.4" d="M89.9713 130.925H210.72C210.902 130.926 211.082 130.891 211.25 130.821C211.418 130.752 211.571 130.65 211.7 130.522C211.828 130.393 211.93 130.241 211.999 130.073C212.068 129.904 212.103 129.724 212.103 129.543C212.103 129.176 211.957 128.824 211.698 128.565C211.438 128.306 211.087 128.16 210.72 128.16H89.9713C89.6041 128.16 89.2518 128.306 88.9915 128.565C88.7313 128.824 88.5842 129.175 88.5825 129.543C88.5825 129.725 88.6185 129.905 88.6884 130.073C88.7582 130.241 88.8606 130.394 88.9897 130.522C89.1187 130.651 89.2719 130.752 89.4403 130.822C89.6088 130.891 89.7892 130.926 89.9713 130.925Z" fill="white"/>
<path d="M184.774 128.147V125.984H186.227L184.774 125.139H185.862L184.41 124.192H183.034V123.104H184.634L183.034 122.47V120.109H184.634V118.566H186.227L184.634 118.029V116.928H185.773L184.838 116L184.032 115.187H159.302V116.294H157.67L159.488 117.114V118.029H156.154V119.731H154.675L156.154 120.474V122.374H157.203V123.283H159.302V125.984H158.125L159.091 126.95V128.16L184.774 128.147Z" fill="#3A0CA3"/>
<path opacity="0.7" d="M184.774 128.147V125.984H186.227L184.774 125.139H185.862L184.41 124.192H183.034V123.104H184.634L183.034 122.47V120.109H184.634V118.566H186.227L184.634 118.029V116.928H185.773L184.838 116L184.032 115.187H159.302V116.294H157.67L159.488 117.114V118.029H156.154V119.731H154.675L156.154 120.474V122.374H157.203V123.283H159.302V125.984H158.125L159.091 126.95V128.16L184.774 128.147Z" fill="white"/>
<path opacity="0.1" d="M184.775 128.147V125.984H186.227L184.775 125.139H185.863L184.41 124.192H183.034V123.104H184.634L183.034 122.47V120.109H184.634V118.566H186.227L184.634 118.029V116.928H185.773L184.839 116L184.032 115.187H171.008V116.294H169.376L171.187 117.114V118.029H167.853V119.731H166.375L167.853 120.474V122.374H168.903V123.283H171.008V125.984H169.831L170.791 126.95V128.16L184.775 128.147Z" fill="black"/>
<path opacity="0.1" d="M159.488 118.029H171.187L159.488 117.606V118.029Z" fill="black"/>
<path opacity="0.1" d="M159.302 123.283H171.008L171.059 124.102L159.302 123.283Z" fill="black"/>
<path opacity="0.1" d="M157.203 122.375H168.902L157.203 122.784V122.375Z" fill="black"/>
<path opacity="0.1" d="M159.302 125.984H171.008L159.302 125.555V125.984Z" fill="black"/>
<path opacity="0.1" d="M159.091 126.95H170.79V127.398L159.091 126.95Z" fill="black"/>
<path opacity="0.1" d="M156.154 119.731H167.853L156.154 119.36V119.731Z" fill="black"/>
<path opacity="0.1" d="M159.302 116.294H171.008L159.302 115.885V116.294Z" fill="black"/>
<path opacity="0.1" d="M184.634 116.928H172.762L184.634 117.293V116.928Z" fill="black"/>
<path opacity="0.1" d="M171.187 118.029H184.634L172.442 118.426L171.187 118.029Z" fill="black"/>
<path opacity="0.1" d="M167.853 119.731L184.634 120.109V119.731H167.853Z" fill="black"/>
<path opacity="0.1" d="M167.853 120.474H176.154L167.853 120.877V120.474Z" fill="black"/>
<path opacity="0.1" d="M183.034 122.471L171.008 122.375L183.034 122.106V122.471Z" fill="black"/>
<path opacity="0.1" d="M183.033 123.104H170.79L183.033 123.514V123.104Z" fill="black"/>
<path opacity="0.1" d="M184.774 125.139H171.187V125.555L184.774 125.139Z" fill="black"/>
<path opacity="0.1" d="M184.774 125.984H174.931L184.774 126.259V125.984Z" fill="black"/>
<path d="M153.286 125.357V127.411C153.286 127.936 152.646 128.154 152.141 128.154H111.104C110.579 128.154 109.946 127.936 109.946 127.411V125.357H153.286Z" fill="#263238"/>
<path opacity="0.4" d="M153.286 125.357V127.411C153.286 127.936 152.646 128.154 152.141 128.154H111.104C110.579 128.154 109.946 127.936 109.946 127.411V125.357H153.286Z" fill="white"/>
<path opacity="0.2" d="M153.286 125.357V127.411C153.286 127.936 152.646 128.154 152.141 128.154H125.075C124.55 128.154 123.923 127.936 123.923 127.411V125.357H153.286Z" fill="black"/>
<path d="M160.154 104.032L155.264 126.195C155.18 126.555 154.978 126.876 154.691 127.108C154.403 127.34 154.046 127.469 153.677 127.475H126.995C126.829 127.472 126.666 127.43 126.519 127.353C126.372 127.275 126.245 127.165 126.148 127.031C126.05 126.896 125.985 126.741 125.958 126.577C125.931 126.413 125.942 126.245 125.99 126.087L130.867 104.096C130.967 103.761 131.179 103.469 131.468 103.271C131.757 103.073 132.105 102.98 132.454 103.008H159.142C159.859 102.983 160.307 103.309 160.154 104.032Z" fill="#263238"/>
<path opacity="0.4" d="M160.154 104.032L155.264 126.195C155.18 126.555 154.978 126.876 154.69 127.108C154.403 127.34 154.046 127.469 153.677 127.475H127.898C127.732 127.472 127.569 127.43 127.422 127.353C127.275 127.275 127.147 127.165 127.05 127.031C126.953 126.896 126.888 126.741 126.861 126.577C126.833 126.413 126.844 126.245 126.893 126.087L131.776 104.096C131.875 103.76 132.087 103.468 132.376 103.27C132.665 103.072 133.014 102.979 133.363 103.008H159.142C159.859 102.983 160.307 103.309 160.154 104.032Z" fill="white"/>
<path opacity="0.2" d="M146.995 115.296C146.995 117.216 144.96 118.733 143.469 118.733C141.978 118.733 141.094 117.191 141.549 115.296C142.003 113.402 143.469 111.923 144.915 111.866C144.493 113.786 145.402 115.296 146.886 115.296H146.995Z" fill="black"/>
</svg>
