<svg width="321" height="279" viewBox="0 0 321 279" fill="none" xmlns="http://www.w3.org/2000/svg">
<path d="M292.775 70.676C291.162 69.46 288.807 69.3192 287.066 70.3432C284.75 65.6648 278.305 63.604 273.703 66.068C272.5 61.0248 267.54 57.1528 262.356 57.2168C257.178 57.2808 252.302 61.2744 251.226 66.3368C251.054 67.1432 250.945 68.0264 250.362 68.6152C249.428 69.5688 247.866 69.2488 246.529 69.1464C242.33 68.82 238.113 71.764 236.974 75.8152L294.753 75.604C295.258 73.6456 294.388 71.8984 292.775 70.6824V70.676Z" fill="#E0E0E0"/>
<path d="M83.0409 254.542C81.4281 253.326 79.0729 253.185 77.3321 254.209C75.0153 249.53 68.5705 247.47 63.9689 249.934C62.7657 244.89 57.8057 241.018 52.6217 241.082C47.4377 241.146 42.5673 245.14 41.4921 250.202C41.3193 251.009 41.2105 251.892 40.6281 252.481C39.6937 253.434 38.1321 253.114 36.7945 253.012C32.5961 252.686 28.3785 255.63 27.2393 259.681L85.0185 259.47C85.5241 257.511 84.6537 255.764 83.0409 254.548V254.542Z" fill="#E0E0E0"/>
<path d="M172.25 234.542C171.444 233.934 170.266 233.863 169.396 234.375C168.238 232.039 165.012 231.002 162.714 232.238C162.113 229.716 159.63 227.783 157.044 227.809C154.452 227.841 152.02 229.838 151.476 232.372C151.393 232.775 151.335 233.217 151.047 233.511C150.58 233.991 149.799 233.831 149.134 233.774C147.034 233.607 144.922 235.086 144.353 237.108L173.242 237.006C173.498 236.026 173.057 235.15 172.257 234.542H172.25Z" fill="#E0E0E0"/>
<path d="M72.2887 191.412C71.4823 190.804 70.3047 190.734 69.4343 191.246C68.2759 188.91 65.0503 187.873 62.7527 189.108C62.1511 186.586 59.6679 184.654 57.0823 184.679C54.4903 184.711 52.0583 186.708 51.5143 189.242C51.4311 189.646 51.3735 190.087 51.0855 190.382C50.6183 190.862 49.8375 190.702 49.1719 190.644C47.0727 190.478 44.9607 191.956 44.3911 193.978L73.2807 193.876C73.5367 192.897 73.0951 192.02 72.2951 191.412H72.2887Z" fill="#F0F0F0"/>
<path d="M295.732 156.065C294.926 155.457 293.748 155.386 292.878 155.898C291.719 153.562 288.494 152.526 286.196 153.761C285.594 151.239 283.111 149.306 280.526 149.332C277.934 149.364 275.502 151.361 274.958 153.895C274.874 154.298 274.817 154.74 274.529 155.034C274.062 155.514 273.281 155.354 272.615 155.297C270.516 155.13 268.404 156.609 267.834 158.631L296.724 158.529C296.98 157.55 296.538 156.673 295.738 156.065H295.732Z" fill="#F0F0F0"/>
<path d="M207.105 35.3161C206.298 34.7081 205.121 34.6377 204.25 35.1497C203.092 32.8137 199.866 31.7769 197.569 33.0121C196.967 30.4905 194.484 28.5577 191.898 28.5833C189.306 28.6153 186.874 30.6121 186.33 33.1465C186.247 33.5497 186.189 33.9913 185.901 34.2857C185.434 34.7657 184.653 34.6057 183.988 34.5481C181.889 34.3817 179.777 35.8601 179.207 37.8825L208.097 37.7801C208.353 36.8009 207.911 35.9241 207.111 35.3161H207.105Z" fill="#F0F0F0"/>
<path d="M84.0968 83.7511C83.2904 83.1431 82.1128 83.0727 81.2424 83.5847C80.084 81.2487 76.8584 80.2119 74.5608 81.4471C73.9592 78.9255 71.476 76.9927 68.8904 77.0183C66.2984 77.0503 63.8664 79.0471 63.3224 81.5815C63.2392 81.9847 63.1816 82.4263 62.8936 82.7207C62.4264 83.2007 61.6456 83.0407 60.98 82.9831C58.8808 82.8167 56.7688 84.2951 56.1992 86.3175L85.0888 86.2151C85.3448 85.2359 84.9032 84.3591 84.1032 83.7511H84.0968Z" fill="#F0F0F0"/>
<path d="M272.436 15.7577C271.63 15.1497 270.452 15.0793 269.582 15.5913C268.423 13.2553 265.198 12.2185 262.9 13.4537C262.298 10.9321 259.815 8.99931 257.23 9.02491C254.638 9.05691 252.206 11.0537 251.662 13.5881C251.578 13.9913 251.521 14.4329 251.233 14.7273C250.766 15.2073 249.985 15.0473 249.319 14.9897C247.22 14.8233 245.108 16.3017 244.538 18.3241L273.428 18.2217C273.684 17.2425 273.242 16.3657 272.442 15.7577H272.436Z" fill="#F0F0F0"/>
<path d="M284.609 211.13H168.929C166.862 211.13 165.178 209.447 165.178 207.38V38.8808C165.178 36.8136 166.862 35.1304 168.929 35.1304H284.609C286.676 35.1304 288.359 36.8136 288.359 38.8808V207.38C288.359 209.447 286.676 211.13 284.609 211.13ZM168.929 35.2904C166.951 35.2904 165.338 36.9032 165.338 38.8808V207.38C165.338 209.358 166.951 210.97 168.929 210.97H284.609C286.586 210.97 288.199 209.358 288.199 207.38V38.8808C288.199 36.9032 286.586 35.2904 284.609 35.2904H168.929Z" fill="#E0E0E0"/>
<path d="M151.214 211.13H35.54C33.4728 211.13 31.7896 209.447 31.7896 207.38V38.8808C31.7896 36.8136 33.4728 35.1304 35.54 35.1304H151.214C153.281 35.1304 154.964 36.8136 154.964 38.8808V207.38C154.964 209.447 153.281 211.13 151.214 211.13ZM35.54 35.2904C33.5624 35.2904 31.9496 36.9032 31.9496 38.8808V207.38C31.9496 209.358 33.5624 210.97 35.54 210.97H151.214C153.191 210.97 154.804 209.358 154.804 207.38V38.8808C154.804 36.9032 153.191 35.2904 151.214 35.2904H35.54Z" fill="#E0E0E0"/>
<path d="M320.5 250.215H0.5V250.375H320.5V250.215Z" fill="#E0E0E0"/>
<path d="M43.8473 259.342H33.5688V259.502H43.8473V259.342Z" fill="#E0E0E0"/>
<path d="M143.783 257.607H109.524V257.767H143.783V257.607Z" fill="#E0E0E0"/>
<path d="M67.6873 265.287H44.4873V265.447H67.6873V265.287Z" fill="#E0E0E0"/>
<path d="M270.286 257.524H242.644V257.684H270.286V257.524Z" fill="#E0E0E0"/>
<path d="M280.039 257.524H275.988V257.684H280.039V257.524Z" fill="#E0E0E0"/>
<path d="M237.364 261.511H202.874V261.671H237.364V261.511Z" fill="#E0E0E0"/>
<path d="M70.4456 33.876C68.9672 31.3736 67.3096 28.8904 64.9544 27.1816C61.4408 24.628 56.884 24.148 52.5768 23.6168C43.2072 22.4712 33.908 20.7112 24.7624 18.3624C22.9896 17.908 21.556 19.8216 22.4776 21.4024C23.5016 23.1624 24.6408 24.8456 26.0232 26.3368C28.5 29.012 31.9048 31.0408 35.5464 31.0536C34.2536 31.3416 32.884 31.668 32.0776 32.8392C31.668 33.4344 31.5592 34.2024 31.8792 34.8488C32.4104 35.9176 33.7224 36.0008 34.8424 35.988L41.4664 35.9176C39.8728 36.5448 39.0536 38.5544 39.572 40.1864C40.0904 41.8184 41.748 42.9576 43.4568 43.06C44.9608 43.1496 46.4584 42.516 47.5656 41.4856C46.8232 42.484 46.9768 44.0904 47.86 45.0248C48.8904 46.1128 50.5928 46.3496 52.0328 45.9464C53.4728 45.5432 54.6952 44.5768 55.7704 43.54C56.6472 44.9544 58.3304 45.8312 59.9944 45.7416C61.6584 45.652 63.2328 44.596 63.9496 43.092C65.0056 45.5368 68.5768 46.4328 70.6632 44.7688C72.3976 46.8936 74.132 49.0248 75.8664 51.1496L76.4744 46.2024C74.7912 41.94 72.7752 37.8184 70.4456 33.876Z" fill="#EBEBEB"/>
<path d="M123.054 25.6648C124.148 22.9704 125.422 20.2696 127.495 18.228C130.593 15.1816 135.028 14.0296 139.214 12.8712C148.314 10.3496 157.249 7.23284 165.946 3.55284C167.636 2.84244 169.332 4.51924 168.66 6.22164C167.905 8.11604 167.028 9.94644 165.882 11.6296C163.828 14.6376 160.762 17.1528 157.166 17.7032C158.49 17.7992 159.892 17.9208 160.865 18.9576C161.358 19.4824 161.582 20.2312 161.358 20.916C160.993 22.0552 159.706 22.324 158.599 22.4776C156.41 22.7784 154.222 23.0856 152.039 23.3864C153.71 23.7768 154.81 25.6328 154.542 27.3224C154.273 29.012 152.801 30.3816 151.124 30.74C149.646 31.0536 148.078 30.644 146.823 29.7928C147.7 30.6696 147.796 32.2824 147.054 33.3384C146.196 34.5672 144.551 35.0536 143.066 34.8616C141.582 34.6696 140.231 33.9016 139.015 33.0376C138.356 34.5672 136.82 35.6808 135.162 35.8408C133.505 35.9944 131.79 35.188 130.855 33.8056C130.17 36.3848 126.772 37.7928 124.462 36.4616C123.06 38.8232 121.658 41.1848 120.257 43.5464L118.919 38.7464C119.95 34.2856 121.332 29.908 123.054 25.6648Z" fill="#EBEBEB"/>
<path d="M121.331 45.233C123.667 31.3463 114.304 18.1949 100.417 15.8585C86.5302 13.5222 73.3788 22.8857 71.0425 36.7725C68.7062 50.6593 78.0697 63.8107 91.9565 66.147C105.843 68.4833 118.995 59.1198 121.331 45.233Z" fill="#E0E0E0"/>
<path d="M122.19 37.956C123.652 23.9502 113.483 11.4109 99.4773 9.94872C85.4715 8.48653 72.9322 18.6552 71.47 32.661C70.0078 46.6668 80.1765 59.2061 94.1823 60.6683C108.188 62.1305 120.727 51.9618 122.19 37.956Z" fill="#EBEBEB"/>
<path d="M113.386 51.8607C122.531 42.7156 122.531 27.8884 113.386 18.7433C104.241 9.59811 89.4138 9.59812 80.2687 18.7433C71.1236 27.8884 71.1236 42.7156 80.2687 51.8607C89.4138 61.0059 104.241 61.0059 113.386 51.8607Z" fill="#FAFAFA"/>
<path d="M93.7481 14.6631L94.0809 17.4407L93.5625 17.5047L93.2809 15.1623L92.6921 15.2327L92.6409 14.7975L93.7417 14.6631H93.7481Z" fill="#E0E0E0"/>
<path d="M96.5959 16.6985L96.6471 17.1337L94.5991 17.3769L94.5607 17.0313L95.5399 15.8537C95.6487 15.7193 95.7191 15.6041 95.7575 15.5145C95.7895 15.4185 95.8023 15.3289 95.7895 15.2457C95.7767 15.1177 95.7191 15.0217 95.6231 14.9641C95.5271 14.9065 95.3927 14.8873 95.2263 14.9065C94.9447 14.9385 94.7399 15.0665 94.6119 15.2777L94.2151 15.0409C94.3047 14.8809 94.4391 14.7529 94.6119 14.6505C94.7847 14.5481 94.9895 14.4841 95.2135 14.4585C95.5143 14.4201 95.7639 14.4585 95.9623 14.5865C96.1607 14.7081 96.2695 14.8937 96.3015 15.1369C96.3207 15.2905 96.3015 15.4313 96.2567 15.5721C96.2119 15.7129 96.1031 15.8793 95.9495 16.0713L95.2903 16.8649L96.5959 16.7049V16.6985Z" fill="#E0E0E0"/>
<path d="M99.316 54.196C99.4696 54.2472 99.5976 54.3368 99.6936 54.452C99.7896 54.5736 99.8472 54.7144 99.8728 54.8872C99.892 55.0664 99.8728 55.2328 99.796 55.38C99.7192 55.5272 99.6104 55.6488 99.4696 55.7384C99.3224 55.828 99.156 55.8856 98.9704 55.9112C98.5928 55.956 98.2792 55.8728 98.0424 55.6616C97.8056 55.4504 97.6584 55.1176 97.6008 54.676C97.5624 54.3624 97.588 54.0936 97.6776 53.8568C97.7672 53.62 97.9016 53.4344 98.0936 53.2936C98.2856 53.1528 98.516 53.0696 98.7848 53.0376C98.9256 53.0184 99.06 53.0184 99.1944 53.0376C99.3224 53.0504 99.4376 53.0824 99.54 53.1336L99.3992 53.5432C99.252 53.4728 99.0728 53.4472 98.8552 53.4728C98.5864 53.5048 98.388 53.6136 98.26 53.7928C98.132 53.972 98.0808 54.2216 98.1192 54.5288C98.1896 54.4264 98.2856 54.3432 98.4072 54.2792C98.5288 54.2152 98.6696 54.1768 98.8296 54.1512C99.0152 54.132 99.1816 54.1448 99.3352 54.196H99.316ZM99.2648 55.3352C99.3544 55.2392 99.3928 55.1176 99.3736 54.9768C99.3544 54.8296 99.2904 54.7208 99.1816 54.6504C99.0728 54.58 98.932 54.5544 98.7592 54.5736C98.5928 54.5928 98.4648 54.6568 98.3688 54.7592C98.2728 54.8616 98.2344 54.9832 98.2536 55.1176C98.2728 55.252 98.3368 55.3608 98.4456 55.4376C98.5608 55.5144 98.7016 55.54 98.8808 55.5208C99.0408 55.5016 99.1688 55.444 99.2584 55.3416L99.2648 55.3352Z" fill="#E0E0E0"/>
<path d="M104.532 16.7751L104.865 19.5527L104.346 19.6167L104.065 17.2743L103.476 17.3447L103.425 16.9095L104.526 16.7751H104.532Z" fill="#E0E0E0"/>
<path d="M108.794 50.2857C108.999 50.4137 109.121 50.6121 109.153 50.8745C109.172 51.0409 109.153 51.1945 109.082 51.3417C109.018 51.4889 108.91 51.6105 108.75 51.7065C108.596 51.8089 108.398 51.8665 108.154 51.8985C107.956 51.9241 107.764 51.9177 107.572 51.8857C107.38 51.8537 107.214 51.7897 107.073 51.7065L107.246 51.2777C107.361 51.3481 107.489 51.3993 107.642 51.4313C107.796 51.4633 107.943 51.4697 108.097 51.4505C108.276 51.4313 108.417 51.3737 108.513 51.2841C108.609 51.1945 108.647 51.0857 108.634 50.9513C108.615 50.8105 108.551 50.7081 108.43 50.6505C108.308 50.5929 108.11 50.5801 107.841 50.6121L107.169 50.6953L107.13 49.1657L108.762 48.9673L108.814 49.4025L107.623 49.5433L107.642 50.1897L107.905 50.1577C108.295 50.1129 108.596 50.1577 108.801 50.2793L108.794 50.2857Z" fill="#E0E0E0"/>
<path d="M84.8138 19.1497L85.1465 21.9273L84.6281 21.9913L84.3465 19.6489L83.7577 19.7193L83.7065 19.2841L84.8073 19.1497H84.8138Z" fill="#E0E0E0"/>
<path d="M86.324 18.9641L86.6568 21.7417L86.1384 21.8057L85.8568 19.4633L85.268 19.5337L85.2168 19.0985L86.3176 18.9641H86.324Z" fill="#E0E0E0"/>
<path d="M88.6922 51.3801L89.025 54.1577L88.5066 54.2217L88.225 51.8793L87.6362 51.9497L87.585 51.5145L88.6858 51.3801H88.6922Z" fill="#E0E0E0"/>
<path d="M90.2024 51.2009L90.5352 53.9785L90.0168 54.0425L89.7352 51.7001L89.1464 51.7705L89.0952 51.3353L90.196 51.2009H90.2024Z" fill="#E0E0E0"/>
<path d="M112.538 24.3143L112.59 24.7495L110.542 24.9927L110.503 24.6471L111.482 23.4695C111.591 23.3351 111.662 23.2199 111.694 23.1303C111.726 23.0343 111.738 22.9447 111.726 22.8615C111.713 22.7335 111.655 22.6375 111.559 22.5799C111.463 22.5223 111.329 22.5031 111.162 22.5223C110.881 22.5543 110.676 22.6823 110.548 22.8935L110.151 22.6567C110.241 22.4967 110.375 22.3687 110.548 22.2663C110.721 22.1639 110.926 22.0999 111.15 22.0679C111.45 22.0295 111.7 22.0679 111.898 22.1959C112.097 22.3175 112.206 22.5031 112.238 22.7463C112.257 22.8935 112.238 23.0407 112.193 23.1815C112.148 23.3223 112.039 23.4887 111.879 23.6807L111.22 24.4743L112.526 24.3143H112.538Z" fill="#E0E0E0"/>
<path d="M115.373 43.2264L114.881 43.284L114.957 43.9176L114.458 43.9752L114.381 43.3416L112.858 43.5272L112.813 43.1688L113.965 41.2168L114.516 41.1528L113.434 43.0152L114.343 42.9064L114.273 42.3496L114.759 42.292L114.829 42.8488L115.322 42.7912L115.373 43.2264Z" fill="#E0E0E0"/>
<path d="M79.2969 25.9402L79.6297 28.7178L79.1113 28.7818L78.8297 26.4394L78.2409 26.5098L78.1897 26.0746L79.2905 25.9402H79.2969Z" fill="#E0E0E0"/>
<path d="M80.7302 28.4552C80.5446 28.3656 80.3846 28.2184 80.2566 28.0136C80.1286 27.8088 80.0518 27.5592 80.0134 27.2648C79.975 26.9704 80.0006 26.708 80.071 26.4776C80.1478 26.2536 80.263 26.068 80.423 25.94C80.583 25.8056 80.775 25.7288 80.999 25.6968C81.223 25.6712 81.4278 25.6968 81.6134 25.7928C81.8054 25.8824 81.959 26.0296 82.087 26.2344C82.215 26.4392 82.2918 26.6888 82.3302 26.9832C82.3686 27.2776 82.3494 27.54 82.2726 27.7704C82.1958 27.9944 82.0806 28.18 81.9142 28.308C81.7542 28.4424 81.5622 28.5192 81.3382 28.5512C81.1142 28.5768 80.9094 28.5512 80.7238 28.4552H80.7302ZM81.7286 27.8024C81.8246 27.6232 81.8502 27.3736 81.8118 27.0472C81.7734 26.7208 81.6838 26.484 81.5494 26.3304C81.415 26.1832 81.2486 26.1192 81.0502 26.1384C80.8518 26.164 80.711 26.26 80.615 26.4392C80.519 26.6184 80.4934 26.868 80.5318 27.1944C80.5702 27.5208 80.6598 27.7576 80.7942 27.9048C80.9286 28.052 81.095 28.116 81.287 28.0968C81.4854 28.0712 81.6326 27.9752 81.7286 27.796V27.8024Z" fill="#E0E0E0"/>
<path d="M82.9705 46.5161C83.0601 46.6185 83.1177 46.7465 83.1369 46.8937C83.1561 47.0601 83.1305 47.2137 83.0473 47.3545C82.9705 47.4953 82.8489 47.6041 82.6825 47.6937C82.5161 47.7833 82.3241 47.8409 82.0937 47.8665C81.8697 47.8921 81.6649 47.8857 81.4857 47.8345C81.3065 47.7897 81.1657 47.7065 81.0569 47.5913C80.9481 47.4761 80.8841 47.3353 80.8649 47.1625C80.8457 47.0089 80.8649 46.8745 80.9353 46.7529C80.9993 46.6313 81.0953 46.5289 81.2297 46.4457C81.1145 46.4009 81.0185 46.3305 80.9481 46.2345C80.8777 46.1449 80.8329 46.0297 80.8201 45.9017C80.8009 45.7481 80.8265 45.6073 80.8969 45.4793C80.9673 45.3513 81.0761 45.2489 81.2297 45.1657C81.3769 45.0825 81.5561 45.0313 81.7545 45.0057C81.9593 44.9801 82.1449 44.9929 82.3113 45.0377C82.4777 45.0825 82.6057 45.1593 82.7081 45.2617C82.8105 45.3705 82.8681 45.4985 82.8873 45.6521C82.9001 45.7801 82.8873 45.8953 82.8361 46.0041C82.7849 46.1065 82.7081 46.2025 82.6057 46.2793C82.7593 46.3305 82.8809 46.4009 82.9705 46.5033V46.5161ZM81.4345 45.5689C81.3513 45.6457 81.3129 45.7481 81.3257 45.8761C81.3385 45.9977 81.3961 46.0809 81.4985 46.1449C81.6009 46.2025 81.7353 46.2217 81.8953 46.2025C82.0617 46.1833 82.1833 46.1321 82.2729 46.0489C82.3625 45.9657 82.3945 45.8633 82.3817 45.7481C82.3689 45.6201 82.3049 45.5305 82.2025 45.4729C82.1001 45.4153 81.9657 45.3961 81.8057 45.4153C81.6457 45.4345 81.5241 45.4857 81.4345 45.5625V45.5689ZM82.4905 47.2905C82.5929 47.2009 82.6313 47.0793 82.6185 46.9449C82.5993 46.8105 82.5353 46.7081 82.4137 46.6377C82.2921 46.5737 82.1385 46.5481 81.9465 46.5737C81.7545 46.5993 81.6137 46.6569 81.5113 46.7465C81.4153 46.8361 81.3705 46.9513 81.3897 47.0921C81.4089 47.2329 81.4729 47.3353 81.5945 47.3993C81.7097 47.4633 81.8697 47.4889 82.0553 47.4633C82.2473 47.4377 82.3881 47.3801 82.4905 47.2905Z" fill="#E0E0E0"/>
<path d="M116.014 32.737C116.167 32.865 116.257 33.0314 116.283 33.249C116.302 33.409 116.283 33.5626 116.212 33.7034C116.148 33.8442 116.033 33.9658 115.879 34.0618C115.726 34.1578 115.527 34.2218 115.291 34.2538C115.092 34.2794 114.9 34.273 114.708 34.241C114.516 34.2026 114.35 34.145 114.209 34.0618L114.382 33.633C114.491 33.7034 114.625 33.761 114.772 33.793C114.919 33.825 115.073 33.8314 115.227 33.8122C115.412 33.793 115.547 33.7354 115.643 33.6458C115.739 33.5562 115.777 33.4474 115.764 33.3194C115.751 33.1914 115.687 33.0954 115.579 33.0314C115.47 32.9738 115.316 32.9546 115.111 32.9738L114.855 33.0058L114.811 32.6538L115.348 31.8282L114.087 31.9818L114.036 31.5466L115.931 31.3162L115.969 31.6618L115.393 32.545C115.655 32.545 115.86 32.609 116.014 32.737Z" fill="#E0E0E0"/>
<path d="M78.6056 36.1354C78.8424 36.3466 78.9896 36.6794 79.0408 37.121C79.0792 37.4346 79.0536 37.7034 78.964 37.9402C78.8744 38.177 78.74 38.3626 78.548 38.5034C78.356 38.6442 78.1256 38.7274 77.8568 38.7594C77.716 38.7786 77.5752 38.7786 77.4472 38.7594C77.3192 38.7466 77.204 38.7146 77.1016 38.6634L77.2424 38.2538C77.3896 38.3242 77.5752 38.3498 77.7864 38.3242C78.0552 38.2922 78.2536 38.1834 78.3816 38.0042C78.516 37.825 78.5608 37.5754 78.5224 37.2682C78.452 37.3706 78.356 37.4538 78.2344 37.5178C78.1128 37.5818 77.972 37.6266 77.812 37.6458C77.6328 37.665 77.46 37.6458 77.3064 37.601C77.1528 37.5498 77.0248 37.4602 76.9288 37.345C76.8328 37.2234 76.7688 37.0826 76.7496 36.9098C76.7304 36.7306 76.7496 36.5642 76.8264 36.417C76.8968 36.2698 77.012 36.1482 77.1528 36.0586C77.3 35.969 77.4664 35.9114 77.652 35.8858C78.0296 35.841 78.3432 35.9242 78.58 36.1354H78.6056ZM78.2664 37.0442C78.3624 36.9418 78.4008 36.8202 78.3816 36.6858C78.3688 36.5514 78.2984 36.4426 78.1896 36.3722C78.0744 36.2954 77.9336 36.2698 77.748 36.289C77.588 36.3082 77.46 36.3658 77.3704 36.4618C77.2808 36.5578 77.2424 36.6794 77.2616 36.8202C77.2808 36.9674 77.3448 37.0762 77.4536 37.1466C77.5624 37.217 77.7032 37.249 77.876 37.2234C78.0424 37.2042 78.1704 37.1402 78.2664 37.0378V37.0442Z" fill="#E0E0E0"/>
<path d="M96.34 35.4119L95.0344 20.2695L95.7512 20.1863L98.4136 35.1623L96.34 35.4119Z" fill="#E0E0E0"/>
<path d="M96.596 36.4105L88.7048 30.2409L89.1208 29.6521L97.7928 34.7017L96.596 36.4105Z" fill="#E0E0E0"/>
<path d="M93.0439 39.0856L108.372 27.7576L93.4535 39.5464L93.0439 39.0856Z" fill="#E6E6E6"/>
<path d="M99.5594 35.0281C99.7066 36.2313 98.8426 37.3257 97.6394 37.4729C96.4362 37.6201 95.3418 36.7561 95.1946 35.5529C95.0474 34.3497 95.9114 33.2553 97.1146 33.1081C98.3178 32.9609 99.4122 33.8249 99.5594 35.0281Z" fill="#E0E0E0"/>
<path d="M82.1959 59.4887C82.1959 59.4887 79.0535 67.8151 80.4487 67.7639C81.8439 67.7127 85.9527 61.575 85.9527 61.575C85.9527 61.575 85.1079 58.8871 82.1959 59.4887Z" fill="#EBEBEB"/>
<path d="M116.532 54.5864C116.532 54.5864 121.563 61.9336 120.193 62.2088C118.83 62.4904 113.377 57.5048 113.377 57.5048C113.377 57.5048 113.556 54.6952 116.532 54.5864Z" fill="#EBEBEB"/>
<path d="M67.956 25.4024C68.084 25.204 83.444 7.52078 83.444 7.52078C83.444 7.52078 76.1544 2.59918 69.3384 11.22C62.5288 19.8408 67.9496 25.4024 67.9496 25.4024H67.956Z" fill="#F0F0F0"/>
<path d="M83.444 7.52728C84.2312 8.19928 81.1976 12.6345 76.9544 17.5753C72.7112 22.5161 68.6344 25.9785 67.8536 25.3065C67.0664 24.6345 69.8696 20.0777 74.1128 15.1369C78.356 10.1961 82.6632 6.85528 83.4504 7.52728H83.444Z" fill="#E0E0E0"/>
<path d="M72.6102 11.2755L70.3264 13.9373L77.1313 19.7759L79.4151 17.1142L72.6102 11.2755Z" fill="#F0F0F0"/>
<path d="M72.596 11.1433C72.7624 12.5193 71.7832 13.7609 70.4072 13.9273C69.0312 14.0937 67.7896 13.1145 67.6232 11.7385C67.4568 10.3625 68.436 9.12086 69.812 8.95446C71.188 8.78806 72.4296 9.76726 72.596 11.1433Z" fill="#F0F0F0"/>
<g opacity="0.4">
<path d="M69.3574 11.4568L68.1094 12.948C67.943 13.2168 65.0694 18.5416 68.5126 22.8168C69.4278 21.1976 70.5414 19.5848 71.7894 17.972C70.1446 16.948 68.167 14.9256 69.3574 11.4504V11.4568Z" fill="white"/>
</g>
<path d="M73.1079 16.3273L75.4055 13.6777L76.0583 14.2345L73.9143 17.0185L73.1079 16.3273Z" fill="#E0E0E0"/>
<path d="M68.1095 12.9482L71.2263 9.19777L70.9255 9.07617L67.9175 12.641L68.1095 12.9482Z" fill="#E0E0E0"/>
<path d="M98.5225 4.88416C98.7465 4.94816 120.135 14.5098 120.135 14.5098C120.135 14.5098 122.727 6.10017 112.5 2.08737C102.273 -1.92543 98.5289 4.87777 98.5289 4.87777L98.5225 4.88416Z" fill="#F0F0F0"/>
<path d="M120.129 14.516C119.713 15.4632 114.593 13.844 108.628 11.2264C102.663 8.60244 98.1703 5.70964 98.5863 4.76244C99.0023 3.81524 104.173 5.17204 110.138 7.79604C116.103 10.42 120.545 13.5688 120.129 14.516Z" fill="#E0E0E0"/>
<path d="M113.393 5.23251L110.182 3.82056L106.573 12.0282L109.783 13.4402L113.393 5.23251Z" fill="#F0F0F0"/>
<path d="M113.518 5.18493C112.25 5.74173 110.772 5.16573 110.215 3.89853C109.658 2.63133 110.234 1.15293 111.502 0.596127C112.769 0.0393268 114.247 0.615328 114.804 1.88253C115.361 3.14973 114.785 4.62813 113.518 5.18493Z" fill="#F0F0F0"/>
<g opacity="0.4">
<path d="M112.276 2.17689L110.484 1.41529C110.177 1.33209 104.25 0.135293 101.153 4.66649C102.964 5.06969 104.833 5.67129 106.74 6.39449C107.246 4.52569 108.602 2.04249 112.27 2.17049L112.276 2.17689Z" fill="white"/>
</g>
<path d="M108.705 7.17529L111.911 8.60889L111.565 9.39609L108.276 8.14809L108.705 7.17529Z" fill="#E0E0E0"/>
<path d="M110.484 1.41509L114.977 3.30949L115.009 2.98309L110.721 1.13989L110.484 1.41509Z" fill="#E0E0E0"/>
<path d="M76.8138 19.5079C76.8138 19.5079 78.5226 17.5815 79.1946 16.9223L78.9194 16.6855L76.5706 19.2967L76.8138 19.5079Z" fill="#E0E0E0"/>
<path d="M39.5271 29.1914C39.5271 29.1914 54.7783 29.4154 58.2023 31.2522C61.6263 33.089 69.0951 40.993 69.0951 40.993C69.0951 40.993 60.2055 33.6138 56.8199 32.0522C53.4279 30.4906 39.5271 29.1914 39.5271 29.1914Z" fill="#E0E0E0"/>
<path d="M46.1639 32.5896C46.1639 32.5896 45.3063 37.076 48.7111 36.5448C52.1159 36.0136 53.3127 34.3496 53.3127 34.3496C53.3127 34.3496 52.8327 38.42 55.3991 38.0552C57.9719 37.684 59.5719 35.8472 59.5719 35.8472C59.5719 35.8472 56.2375 39.4632 54.3495 38.9384C52.4615 38.4072 52.9095 35.7384 52.9095 35.7384C52.9095 35.7384 48.9415 38.292 47.0343 37.0696C45.1271 35.8472 45.3831 35.1496 46.1639 32.596V32.5896Z" fill="#E0E0E0"/>
<path d="M150.939 14.9512C150.939 14.9512 136.174 18.7912 133.287 21.3832C130.401 23.9752 125.019 33.428 125.019 33.428C125.019 33.428 131.899 24.1544 134.823 21.8312C137.748 19.508 150.939 14.9448 150.939 14.9448V14.9512Z" fill="#E0E0E0"/>
<path d="M145.3 19.8279C145.3 19.8279 147.201 23.9815 143.764 24.2695C140.334 24.5639 138.772 23.2263 138.772 23.2263C138.772 23.2263 140.206 27.0663 137.62 27.3223C135.034 27.5783 133.038 26.1703 133.038 26.1703C133.038 26.1703 137.14 28.8967 138.849 27.9303C140.558 26.9703 139.482 24.4807 139.482 24.4807C139.482 24.4807 143.943 26.0231 145.505 24.3783C147.073 22.7335 146.65 22.1191 145.287 19.8279H145.3Z" fill="#E0E0E0"/>
<path d="M234.1 206.286C234.388 204.257 234.574 202.164 234.03 200.186C233.223 197.236 230.932 194.964 228.794 192.775C224.148 188.014 219.815 182.958 215.822 177.639C215.047 176.609 213.415 177.025 213.23 178.305C213.018 179.726 212.903 181.153 213.006 182.58C213.191 185.14 214.164 187.751 216.161 189.364C215.322 188.954 214.426 188.532 213.466 188.82C212.98 188.967 212.577 189.338 212.468 189.838C212.289 190.663 212.974 191.284 213.594 191.764C214.817 192.724 216.046 193.684 217.268 194.644C216.116 194.292 214.785 195.028 214.35 196.154C213.914 197.281 214.324 198.638 215.22 199.444C216.007 200.161 217.108 200.468 218.17 200.391C217.326 200.615 216.698 201.562 216.775 202.465C216.865 203.514 217.69 204.398 218.663 204.807C219.636 205.217 220.724 205.23 221.78 205.134C221.639 206.298 222.177 207.521 223.13 208.206C224.084 208.89 225.415 208.999 226.471 208.494C225.972 210.305 227.546 212.366 229.422 212.372C229.441 214.305 229.454 216.238 229.473 218.17L231.988 215.719C232.942 212.641 233.646 209.479 234.1 206.286Z" fill="#EBEBEB"/>
<path d="M266.631 224.948C268.417 223.95 270.311 223.022 272.346 222.817C275.393 222.51 278.33 223.828 281.146 225.031C287.258 227.649 293.543 229.876 299.943 231.681C301.185 232.033 301.377 233.703 300.257 234.343C299.009 235.054 297.722 235.674 296.353 236.09C293.895 236.839 291.111 236.871 288.884 235.591C289.569 236.225 290.286 236.91 290.362 237.908C290.401 238.414 290.196 238.926 289.774 239.201C289.07 239.662 288.244 239.246 287.566 238.842C286.228 238.049 284.89 237.249 283.559 236.455C284.308 237.402 284.097 238.913 283.201 239.726C282.305 240.538 280.897 240.641 279.822 240.097C278.874 239.617 278.19 238.702 277.876 237.684C277.972 238.554 277.313 239.476 276.442 239.732C275.431 240.026 274.311 239.572 273.575 238.817C272.846 238.055 272.442 237.044 272.154 236.026C271.118 236.577 269.786 236.513 268.801 235.873C267.822 235.226 267.233 234.03 267.329 232.858C265.818 233.972 263.329 233.255 262.644 231.502C260.833 232.18 259.022 232.865 257.217 233.543L258.599 230.318C261.134 228.321 263.822 226.522 266.638 224.948H266.631Z" fill="#EBEBEB"/>
<path d="M259.232 232.663C265.361 224.865 264.009 213.575 256.211 207.446C248.414 201.317 237.124 202.669 230.994 210.466C224.865 218.264 226.217 229.554 234.015 235.683C241.812 241.813 253.102 240.46 259.232 232.663Z" fill="#E0E0E0"/>
<path d="M265.931 219.173C266.198 209.258 258.377 201.005 248.462 200.738C238.548 200.472 230.294 208.293 230.028 218.208C229.761 228.122 237.582 236.376 247.497 236.642C257.411 236.909 265.665 229.087 265.931 219.173Z" fill="#EBEBEB"/>
<path d="M254.114 234.015C262.567 230.622 266.669 221.019 263.276 212.566C259.883 204.113 250.28 200.011 241.826 203.404C233.373 206.797 229.271 216.4 232.664 224.853C236.057 233.306 245.66 237.408 254.114 234.015Z" fill="#FAFAFA"/>
<path d="M255.367 205.991L254.33 207.662L254.017 207.47L254.894 206.055L254.542 205.838L254.702 205.575L255.367 205.985V205.991Z" fill="#E0E0E0"/>
<path d="M256.039 208.366L255.873 208.628L254.638 207.86L254.766 207.655L255.822 207.438C255.943 207.412 256.033 207.38 256.09 207.342C256.148 207.303 256.193 207.258 256.231 207.207C256.282 207.13 256.289 207.054 256.263 206.977C256.238 206.9 256.174 206.836 256.071 206.772C255.898 206.663 255.732 206.644 255.572 206.702L255.457 206.401C255.578 206.356 255.707 206.343 255.847 206.362C255.988 206.382 256.129 206.433 256.263 206.522C256.443 206.638 256.564 206.766 256.622 206.919C256.673 207.073 256.66 207.226 256.564 207.374C256.507 207.463 256.436 207.54 256.347 207.591C256.257 207.649 256.129 207.694 255.956 207.726L255.246 207.873L256.033 208.359L256.039 208.366Z" fill="#E0E0E0"/>
<path d="M241.018 230.171C241.082 230.267 241.108 230.369 241.114 230.478C241.114 230.587 241.082 230.689 241.018 230.791C240.954 230.9 240.865 230.977 240.762 231.028C240.66 231.079 240.545 231.092 240.423 231.079C240.302 231.067 240.186 231.022 240.071 230.951C239.841 230.811 239.706 230.625 239.668 230.407C239.63 230.183 239.694 229.94 239.86 229.671C239.975 229.486 240.11 229.345 240.263 229.255C240.417 229.166 240.57 229.121 240.737 229.127C240.903 229.134 241.07 229.191 241.23 229.287C241.313 229.339 241.39 229.403 241.454 229.467C241.518 229.531 241.569 229.601 241.601 229.671L241.338 229.838C241.287 229.729 241.198 229.639 241.07 229.556C240.91 229.454 240.75 229.428 240.602 229.467C240.449 229.511 240.314 229.627 240.199 229.812C240.282 229.787 240.372 229.787 240.468 229.799C240.564 229.819 240.66 229.857 240.756 229.915C240.865 229.985 240.954 230.062 241.012 230.164L241.018 230.171ZM240.487 230.772C240.577 230.759 240.654 230.708 240.705 230.625C240.762 230.535 240.769 230.452 240.743 230.363C240.711 230.273 240.647 230.196 240.545 230.132C240.442 230.068 240.346 230.043 240.25 230.062C240.154 230.075 240.078 230.126 240.026 230.209C239.975 230.292 239.962 230.375 239.994 230.465C240.02 230.555 240.09 230.638 240.199 230.702C240.295 230.759 240.391 230.785 240.487 230.772Z" fill="#E0E0E0"/>
<path d="M260.366 211.905L259.329 213.575L259.015 213.383L259.892 211.969L259.54 211.751L259.7 211.489L260.366 211.898V211.905Z" fill="#E0E0E0"/>
<path d="M247.95 232.199C248.007 232.359 247.988 232.519 247.886 232.679C247.822 232.782 247.745 232.852 247.642 232.903C247.54 232.954 247.431 232.974 247.297 232.961C247.169 232.948 247.034 232.897 246.887 232.807C246.766 232.73 246.663 232.647 246.574 232.538C246.484 232.436 246.42 232.327 246.382 232.218L246.663 232.058C246.695 232.148 246.746 232.231 246.81 232.321C246.881 232.404 246.958 232.474 247.054 232.532C247.162 232.602 247.265 232.634 247.354 232.622C247.444 232.622 247.514 232.57 247.566 232.494C247.617 232.41 247.623 232.321 247.585 232.238C247.546 232.154 247.444 232.058 247.278 231.956L246.874 231.706L247.527 230.849L248.506 231.457L248.346 231.719L247.63 231.271L247.354 231.636L247.514 231.738C247.751 231.886 247.898 232.039 247.95 232.199Z" fill="#E0E0E0"/>
<path d="M248.481 204.526L247.444 206.196L247.137 206.004L248.014 204.59L247.662 204.372L247.822 204.11L248.487 204.519L248.481 204.526Z" fill="#E0E0E0"/>
<path d="M249.396 205.089L248.359 206.759L248.046 206.567L248.922 205.153L248.57 204.935L248.73 204.673L249.396 205.082V205.089Z" fill="#E0E0E0"/>
<path d="M236.423 223.95L235.386 225.62L235.073 225.428L235.95 224.014L235.598 223.796L235.758 223.534L236.423 223.943V223.95Z" fill="#E0E0E0"/>
<path d="M237.332 224.513L236.295 226.183L235.981 225.991L236.858 224.577L236.506 224.359L236.666 224.097L237.332 224.507V224.513Z" fill="#E0E0E0"/>
<path d="M261.447 219.572L261.287 219.834L260.052 219.066L260.18 218.861L261.236 218.644C261.358 218.618 261.447 218.586 261.505 218.548C261.562 218.509 261.607 218.465 261.646 218.414C261.697 218.337 261.703 218.26 261.678 218.183C261.652 218.106 261.588 218.042 261.486 217.978C261.313 217.87 261.146 217.85 260.986 217.908L260.871 217.607C260.993 217.562 261.121 217.549 261.262 217.569C261.402 217.588 261.543 217.639 261.678 217.729C261.857 217.844 261.978 217.972 262.03 218.125C262.087 218.279 262.068 218.426 261.972 218.58C261.914 218.669 261.844 218.746 261.754 218.798C261.665 218.855 261.537 218.9 261.364 218.932L260.654 219.079L261.441 219.572H261.447Z" fill="#E0E0E0"/>
<path d="M254.676 231.214L254.382 231.028L254.145 231.406L253.844 231.22L254.081 230.843L253.166 230.273L253.3 230.055L254.791 229.492L255.124 229.697L253.71 230.247L254.254 230.587L254.465 230.247L254.759 230.427L254.548 230.766L254.842 230.951L254.682 231.214H254.676Z" fill="#E0E0E0"/>
<path d="M242.465 205.825L241.428 207.495L241.115 207.303L241.991 205.889L241.639 205.671L241.799 205.409L242.465 205.819V205.825Z" fill="#E0E0E0"/>
<path d="M242.145 207.841C242.081 207.706 242.062 207.559 242.081 207.393C242.1 207.226 242.164 207.054 242.279 206.874C242.388 206.695 242.516 206.561 242.657 206.471C242.798 206.382 242.945 206.33 243.092 206.33C243.239 206.33 243.38 206.369 243.514 206.452C243.649 206.535 243.745 206.644 243.809 206.778C243.873 206.913 243.892 207.06 243.873 207.226C243.854 207.393 243.79 207.566 243.674 207.745C243.566 207.924 243.438 208.058 243.297 208.148C243.156 208.244 243.009 208.289 242.862 208.289C242.714 208.289 242.574 208.25 242.439 208.167C242.305 208.084 242.209 207.975 242.145 207.841ZM242.983 207.924C243.111 207.866 243.239 207.745 243.361 207.546C243.482 207.348 243.54 207.182 243.534 207.041C243.527 206.9 243.463 206.791 243.342 206.714C243.226 206.644 243.098 206.631 242.97 206.689C242.842 206.746 242.714 206.868 242.593 207.066C242.471 207.265 242.414 207.431 242.42 207.572C242.426 207.713 242.49 207.822 242.606 207.892C242.727 207.969 242.849 207.975 242.983 207.918V207.924Z" fill="#E0E0E0"/>
<path d="M235.418 218.753C235.418 218.849 235.399 218.945 235.342 219.035C235.278 219.137 235.194 219.207 235.092 219.252C234.99 219.291 234.874 219.303 234.74 219.278C234.612 219.252 234.478 219.201 234.343 219.118C234.209 219.035 234.1 218.939 234.023 218.836C233.946 218.734 233.902 218.625 233.895 218.51C233.889 218.401 233.914 218.292 233.978 218.19C234.036 218.1 234.106 218.036 234.196 217.998C234.286 217.959 234.382 217.947 234.497 217.959C234.452 217.883 234.433 217.799 234.433 217.716C234.433 217.633 234.458 217.556 234.51 217.473C234.567 217.377 234.644 217.313 234.74 217.275C234.836 217.236 234.945 217.23 235.06 217.249C235.175 217.268 235.297 217.319 235.418 217.396C235.54 217.473 235.642 217.563 235.713 217.659C235.783 217.755 235.822 217.857 235.834 217.959C235.841 218.062 235.815 218.158 235.758 218.254C235.706 218.331 235.649 218.388 235.572 218.427C235.502 218.465 235.418 218.478 235.322 218.478C235.386 218.574 235.418 218.67 235.425 218.766L235.418 218.753ZM234.99 217.556C234.906 217.556 234.842 217.601 234.798 217.678C234.753 217.748 234.746 217.825 234.778 217.902C234.81 217.979 234.874 218.049 234.97 218.107C235.066 218.171 235.162 218.196 235.246 218.19C235.329 218.183 235.393 218.145 235.438 218.075C235.482 217.998 235.489 217.921 235.457 217.844C235.425 217.767 235.361 217.697 235.265 217.639C235.169 217.582 235.079 217.55 234.996 217.556H234.99ZM234.81 218.971C234.906 218.971 234.983 218.919 235.034 218.836C235.086 218.753 235.092 218.67 235.054 218.58C235.015 218.491 234.938 218.407 234.823 218.337C234.708 218.267 234.606 218.235 234.51 218.241C234.414 218.247 234.343 218.292 234.292 218.375C234.241 218.459 234.228 218.548 234.266 218.631C234.305 218.721 234.375 218.798 234.49 218.868C234.606 218.939 234.708 218.971 234.804 218.964L234.81 218.971Z" fill="#E0E0E0"/>
<path d="M259.649 225.729C259.674 225.863 259.649 225.998 259.572 226.126C259.514 226.222 259.431 226.298 259.335 226.343C259.239 226.394 259.124 226.407 258.996 226.394C258.868 226.382 258.734 226.33 258.586 226.241C258.465 226.164 258.362 226.081 258.273 225.972C258.183 225.87 258.119 225.761 258.081 225.652L258.362 225.492C258.394 225.582 258.439 225.665 258.51 225.748C258.58 225.831 258.657 225.902 258.753 225.959C258.862 226.03 258.964 226.062 259.054 226.055C259.143 226.049 259.214 226.004 259.265 225.927C259.316 225.85 259.322 225.767 259.29 225.69C259.258 225.607 259.182 225.53 259.06 225.454L258.906 225.358L259.041 225.146L259.7 224.929L258.938 224.455L259.098 224.193L260.238 224.903L260.11 225.108L259.406 225.338C259.546 225.454 259.636 225.582 259.662 225.716L259.649 225.729Z" fill="#E0E0E0"/>
<path d="M237.588 211.124C237.626 211.348 237.562 211.591 237.396 211.86C237.281 212.046 237.146 212.187 236.993 212.276C236.839 212.366 236.685 212.411 236.519 212.398C236.353 212.391 236.186 212.334 236.026 212.238C235.943 212.187 235.866 212.123 235.802 212.059C235.738 211.995 235.687 211.924 235.655 211.854L235.917 211.694C235.969 211.796 236.058 211.892 236.186 211.975C236.346 212.078 236.506 212.103 236.653 212.059C236.807 212.014 236.941 211.905 237.057 211.713C236.973 211.739 236.884 211.739 236.788 211.726C236.692 211.707 236.596 211.668 236.5 211.611C236.391 211.54 236.301 211.457 236.244 211.361C236.18 211.265 236.148 211.163 236.148 211.054C236.148 210.945 236.18 210.843 236.244 210.74C236.314 210.631 236.397 210.555 236.5 210.503C236.602 210.452 236.717 210.439 236.839 210.452C236.961 210.465 237.076 210.51 237.191 210.58C237.421 210.721 237.556 210.907 237.594 211.124H237.588ZM236.999 211.476C237.095 211.463 237.172 211.412 237.223 211.329C237.274 211.246 237.287 211.163 237.255 211.067C237.229 210.977 237.159 210.894 237.05 210.83C236.954 210.772 236.858 210.747 236.769 210.759C236.673 210.772 236.602 210.823 236.551 210.913C236.493 211.003 236.487 211.086 236.513 211.175C236.538 211.265 236.609 211.342 236.711 211.406C236.813 211.47 236.909 211.489 237.005 211.476H236.999Z" fill="#E0E0E0"/>
<path d="M247.655 218.542L253.607 209.639L254.036 209.908L248.903 219.316L247.655 218.542Z" fill="#E0E0E0"/>
<path d="M247.354 219.201L245.735 212.334L246.228 212.193L248.769 218.785L247.354 219.201Z" fill="#E0E0E0"/>
<path d="M244.225 219.105L257.639 219.63L244.25 219.534L244.225 219.105Z" fill="#E6E6E6"/>
<path d="M249.594 219.745C249.146 220.468 248.186 220.692 247.463 220.244C246.74 219.796 246.516 218.836 246.964 218.113C247.412 217.39 248.372 217.166 249.095 217.614C249.825 218.062 250.042 219.022 249.594 219.745Z" fill="#E0E0E0"/>
<path d="M229.281 225.543C229.281 225.543 223.886 228.737 224.673 229.319C225.46 229.902 230.42 228.34 230.42 228.34C230.42 228.34 231.143 226.49 229.274 225.537L229.281 225.543Z" fill="#EBEBEB"/>
<path d="M250.311 237.966C250.311 237.966 249.837 244.218 248.967 243.77C248.097 243.322 247.29 238.183 247.29 238.183C247.29 238.183 248.628 236.718 250.311 237.966Z" fill="#EBEBEB"/>
<path d="M236.461 200.538C236.621 200.487 252.852 197.53 252.852 197.53C252.852 197.53 251.009 191.617 243.469 193.351C235.93 195.092 236.461 200.532 236.461 200.532V200.538Z" fill="#F0F0F0"/>
<path d="M252.852 197.53C252.986 198.247 249.37 199.348 244.858 200.193C240.353 201.044 236.583 201.146 236.449 200.436C236.314 199.719 239.86 198.452 244.366 197.601C248.871 196.75 252.711 196.814 252.846 197.53H252.852Z" fill="#E0E0E0"/>
<path d="M245.239 194.83L242.811 195.287L243.98 201.494L246.407 201.037L245.239 194.83Z" fill="#F0F0F0"/>
<path d="M245.294 194.74C244.782 195.566 243.694 195.822 242.862 195.31C242.036 194.798 241.78 193.71 242.292 192.878C242.804 192.052 243.892 191.796 244.724 192.308C245.556 192.82 245.806 193.908 245.294 194.74Z" fill="#F0F0F0"/>
<g opacity="0.4">
<path d="M243.38 193.486L242.036 193.754C241.825 193.825 237.902 195.489 237.908 199.354C239.124 198.868 240.449 198.471 241.844 198.138C241.396 196.852 241.198 194.868 243.38 193.486Z" fill="white"/>
</g>
<path d="M243.29 197.818L245.722 197.37L245.837 197.966L243.431 198.548L243.29 197.818Z" fill="#E0E0E0"/>
<path d="M242.036 193.761L245.396 193.07L245.287 192.871L242.061 193.505L242.036 193.761Z" fill="#E0E0E0"/>
<path d="M262.298 202.721C262.394 202.855 269.934 217.531 269.934 217.531C269.934 217.531 275.06 214.049 271.207 207.342C267.354 200.635 262.298 202.721 262.298 202.721Z" fill="#F0F0F0"/>
<path d="M269.934 217.53C269.287 217.87 267.182 214.721 265.063 210.657C262.938 206.593 261.742 203.022 262.388 202.682C263.034 202.343 265.281 205.37 267.399 209.434C269.524 213.498 270.58 217.191 269.934 217.53Z" fill="#E0E0E0"/>
<path d="M270.3 209.457L269.157 207.266L263.557 210.188L264.7 212.378L270.3 209.457Z" fill="#F0F0F0"/>
<path d="M270.407 209.492C269.466 209.242 268.91 208.276 269.159 207.335C269.409 206.394 270.375 205.838 271.316 206.087C272.257 206.337 272.814 207.303 272.564 208.244C272.314 209.185 271.348 209.742 270.407 209.492Z" fill="#F0F0F0"/>
<g opacity="0.4">
<path d="M271.054 207.291L270.401 206.081C270.266 205.902 267.54 202.631 263.841 203.758C264.66 204.775 265.422 205.934 266.151 207.169C267.252 206.363 269.095 205.595 271.054 207.284V207.291Z" fill="white"/>
</g>
<path d="M266.887 208.462L268.02 210.663L267.482 210.945L266.222 208.814L266.887 208.462Z" fill="#E0E0E0"/>
<path d="M270.401 206.081L272.039 209.101L272.199 208.935L270.65 206.036L270.401 206.081Z" fill="#E0E0E0"/>
<path d="M243.93 201.198C243.93 201.198 245.716 200.89 246.375 200.826L246.33 200.577L243.892 200.974L243.937 201.198H243.93Z" fill="#E0E0E0"/>
<path d="M219.169 190.1C219.169 190.1 227.451 196.942 228.526 199.457C229.601 201.972 230.222 209.607 230.222 209.607C230.222 209.607 228.583 201.639 227.412 199.291C226.235 196.942 219.169 190.1 219.169 190.1Z" fill="#E0E0E0"/>
<path d="M221.319 194.887C221.319 194.887 218.874 196.974 220.98 198.177C223.086 199.386 224.474 198.996 224.474 198.996C224.474 198.996 222.414 201.025 223.994 201.953C225.575 202.881 227.258 202.58 227.258 202.58C227.258 202.58 223.828 203.098 223.028 201.978C222.222 200.858 223.649 199.585 223.649 199.585C223.649 199.585 220.346 199.239 219.834 197.729C219.322 196.212 219.77 195.943 221.326 194.887H221.319Z" fill="#E0E0E0"/>
<path d="M286.676 231.335C286.676 231.335 276.871 226.945 274.138 227.098C271.406 227.252 264.289 230.081 264.289 230.081C264.289 230.081 272.154 228.014 274.785 228.026C277.415 228.039 286.676 231.342 286.676 231.342V231.335Z" fill="#E0E0E0"/>
<path d="M281.428 231.534C281.428 231.534 280.641 234.651 278.631 233.3C276.615 231.95 276.346 230.529 276.346 230.529C276.346 230.529 275.444 233.275 273.914 232.27C272.385 231.271 271.905 229.62 271.905 229.62C271.905 229.62 272.961 232.923 274.324 233.147C275.687 233.371 276.193 231.534 276.193 231.534C276.193 231.534 277.966 234.343 279.553 234.132C281.14 233.921 281.178 233.396 281.441 231.534H281.428Z" fill="#E0E0E0"/>
<path d="M297.07 274.702C297.07 276.871 237.217 278.625 163.393 278.625C89.5689 278.625 29.7161 276.865 29.7161 274.702C29.7161 272.538 89.5689 270.778 163.393 270.778C237.217 270.778 297.07 272.538 297.07 274.702Z" fill="#F5F5F5"/>
<path d="M69.2105 189.646C69.1273 189.646 69.0441 189.614 68.9801 189.55C68.8585 189.422 68.8585 189.223 68.9801 189.095C72.6409 185.53 75.0153 183.252 77.3897 180.967C79.7577 178.689 82.1321 176.417 85.7865 172.852C85.9145 172.73 86.1129 172.73 86.2409 172.852C86.3625 172.98 86.3625 173.178 86.2409 173.306C82.5865 176.865 80.2121 179.143 77.8441 181.422C75.4697 183.7 73.0953 185.978 69.4409 189.543C69.3769 189.601 69.3001 189.633 69.2169 189.633L69.2105 189.646Z" fill="#263238"/>
<path d="M64.2889 194.03C64.2057 194.03 64.1225 193.998 64.0585 193.934C63.9369 193.806 63.9369 193.607 64.0585 193.479L67.0345 190.58C67.1625 190.458 67.3609 190.458 67.4889 190.58C67.6105 190.708 67.6105 190.906 67.4889 191.034L64.5129 193.934C64.4489 193.991 64.3721 194.023 64.2889 194.023V194.03Z" fill="#263238"/>
<path d="M62.3625 217.78C62.2857 217.78 62.2025 217.748 62.1385 217.69C62.0105 217.569 62.0041 217.364 62.1257 217.236L94.4777 183.419C94.5993 183.291 94.8041 183.284 94.9321 183.406C95.0601 183.527 95.0665 183.732 94.9449 183.86L62.5929 217.678C62.5289 217.742 62.4457 217.774 62.3625 217.774V217.78Z" fill="#263238"/>
<path d="M87.7704 209.639C87.6936 209.639 87.6104 209.614 87.5528 209.55C87.4248 209.428 87.4184 209.223 87.54 209.095C90.2856 206.177 92.18 204.103 94.0104 202.1C95.8408 200.097 97.7352 198.023 100.487 195.098C100.609 194.97 100.814 194.964 100.942 195.086C101.07 195.207 101.076 195.412 100.954 195.54C98.2088 198.458 96.3144 200.532 94.484 202.535C92.6536 204.538 90.7592 206.612 88.0072 209.537C87.9432 209.601 87.86 209.639 87.7768 209.639H87.7704Z" fill="#263238"/>
<path d="M102.49 193.678C102.414 193.678 102.337 193.652 102.279 193.594C102.145 193.479 102.132 193.274 102.254 193.14L104.801 190.273C104.916 190.138 105.121 190.132 105.255 190.247C105.39 190.362 105.402 190.567 105.281 190.702L102.734 193.569C102.67 193.639 102.58 193.678 102.497 193.678H102.49Z" fill="#263238"/>
<path d="M103.719 132.91C101.294 127.386 98.4904 121.863 94.0744 117.761C87.4696 111.636 78.2152 109.511 69.4664 107.354C50.452 102.663 31.7448 96.7431 13.492 89.6391C9.95283 88.2631 6.52243 91.8471 8.03283 95.3351C9.70963 99.2135 11.636 102.958 14.1128 106.375C18.548 112.494 25.0504 117.518 32.5512 118.452C29.812 118.727 26.9128 119.06 24.9608 121.268C23.9688 122.388 23.5528 123.95 24.052 125.358C24.884 127.694 27.5656 128.18 29.8696 128.436C34.42 128.935 38.9768 129.434 43.5272 129.934C40.0904 130.836 37.9144 134.759 38.5736 138.247C39.2328 141.735 42.3688 144.487 45.8568 145.127C48.9352 145.69 52.1672 144.75 54.7144 142.913C52.9416 144.788 52.852 148.129 54.4456 150.273C56.2952 152.762 59.7384 153.684 62.804 153.198C65.8696 152.711 68.6216 151.041 71.0984 149.172C72.5576 152.302 75.8024 154.522 79.252 154.746C82.7016 154.97 86.2088 153.185 88.0584 150.273C89.6264 155.572 96.7624 158.298 101.466 155.393C104.513 160.206 107.559 165.012 110.599 169.825L113.082 159.796C110.676 150.606 107.546 141.614 103.726 132.916L103.719 132.91Z" fill="#263238"/>
<g opacity="0.8">
<path d="M103.719 132.91C101.294 127.386 98.4904 121.863 94.0744 117.761C87.4696 111.636 78.2152 109.511 69.4664 107.354C50.452 102.663 31.7448 96.7431 13.492 89.6391C9.95283 88.2631 6.52243 91.8471 8.03283 95.3351C9.70963 99.2135 11.636 102.958 14.1128 106.375C18.548 112.494 25.0504 117.518 32.5512 118.452C29.812 118.727 26.9128 119.06 24.9608 121.268C23.9688 122.388 23.5528 123.95 24.052 125.358C24.884 127.694 27.5656 128.18 29.8696 128.436C34.42 128.935 38.9768 129.434 43.5272 129.934C40.0904 130.836 37.9144 134.759 38.5736 138.247C39.2328 141.735 42.3688 144.487 45.8568 145.127C48.9352 145.69 52.1672 144.75 54.7144 142.913C52.9416 144.788 52.852 148.129 54.4456 150.273C56.2952 152.762 59.7384 153.684 62.804 153.198C65.8696 152.711 68.6216 151.041 71.0984 149.172C72.5576 152.302 75.8024 154.522 79.252 154.746C82.7016 154.97 86.2088 153.185 88.0584 150.273C89.6264 155.572 96.7624 158.298 101.466 155.393C104.513 160.206 107.559 165.012 110.599 169.825L113.082 159.796C110.676 150.606 107.546 141.614 103.726 132.916L103.719 132.91Z" fill="white"/>
</g>
<path d="M214.087 129.05C217.006 123.77 220.295 118.522 225.07 114.842C232.206 109.338 241.614 108.065 250.522 106.714C269.882 103.77 289.05 99.5721 307.873 94.1513C311.521 93.1017 314.612 96.9801 312.794 100.314C310.772 104.026 308.513 107.578 305.742 110.759C300.769 116.449 293.838 120.858 286.279 121.108C288.98 121.633 291.841 122.228 293.582 124.602C294.465 125.806 294.74 127.406 294.119 128.762C293.082 131.015 290.369 131.258 288.052 131.297C283.47 131.38 278.894 131.463 274.311 131.546C277.652 132.756 279.463 136.865 278.49 140.276C277.518 143.687 274.145 146.145 270.612 146.465C267.495 146.746 264.366 145.518 261.998 143.45C263.591 145.479 263.38 148.814 261.594 150.804C259.527 153.121 256.014 153.722 252.999 152.961C249.991 152.199 247.406 150.286 245.108 148.199C243.374 151.188 239.937 153.102 236.481 153.012C233.025 152.922 229.697 150.83 228.116 147.758C226.068 152.897 218.721 154.958 214.298 151.642C210.83 156.154 207.361 160.673 203.892 165.185L202.33 154.97C205.562 146.042 209.498 137.364 214.094 129.05H214.087Z" fill="#263238"/>
<g opacity="0.8">
<path d="M214.087 129.05C217.006 123.77 220.295 118.522 225.07 114.842C232.206 109.338 241.614 108.065 250.522 106.714C269.882 103.77 289.05 99.5721 307.873 94.1513C311.521 93.1017 314.612 96.9801 312.794 100.314C310.772 104.026 308.513 107.578 305.742 110.759C300.769 116.449 293.838 120.858 286.279 121.108C288.98 121.633 291.841 122.228 293.582 124.602C294.465 125.806 294.74 127.406 294.119 128.762C293.082 131.015 290.369 131.258 288.052 131.297C283.47 131.38 278.894 131.463 274.311 131.546C277.652 132.756 279.463 136.865 278.49 140.276C277.518 143.687 274.145 146.145 270.612 146.465C267.495 146.746 264.366 145.518 261.998 143.45C263.591 145.479 263.38 148.814 261.594 150.804C259.527 153.121 256.014 153.722 252.999 152.961C249.991 152.199 247.406 150.286 245.108 148.199C243.374 151.188 239.937 153.102 236.481 153.012C233.025 152.922 229.697 150.83 228.116 147.758C226.068 152.897 218.721 154.958 214.298 151.642C210.83 156.154 207.361 160.673 203.892 165.185L202.33 154.97C205.562 146.042 209.498 137.364 214.094 129.05H214.087Z" fill="white"/>
</g>
<path d="M207.12 162.663C211.92 133.857 192.459 106.615 163.654 101.815C134.848 97.015 107.605 116.476 102.805 145.282C98.0053 174.088 117.466 201.33 146.272 206.13C175.078 210.93 202.321 191.469 207.12 162.663Z" fill="#3A0CA3"/>
<path opacity="0.3" d="M207.12 162.663C211.92 133.857 192.459 106.615 163.654 101.815C134.848 97.015 107.605 116.476 102.805 145.282C98.0053 174.088 117.466 201.33 146.272 206.13C175.078 210.93 202.321 191.469 207.12 162.663Z" fill="black"/>
<path d="M209.844 151.08C214.643 122.274 195.183 95.0313 166.377 90.2316C137.571 85.4318 110.328 104.893 105.528 133.698C100.728 162.504 120.189 189.747 148.995 194.547C177.801 199.347 205.044 179.886 209.844 151.08Z" fill="#3A0CA3"/>
<path d="M192.028 176.735C210.993 157.77 210.993 127.022 192.028 108.057C173.063 89.0915 142.314 89.0915 123.349 108.057C104.384 127.022 104.384 157.77 123.349 176.735C142.314 195.7 173.063 195.7 192.028 176.735Z" fill="#3A0CA3"/>
<path opacity="0.7" d="M192.028 176.735C210.993 157.77 210.993 127.022 192.028 108.057C173.063 89.0915 142.314 89.0915 123.349 108.057C104.384 127.022 104.384 157.77 123.349 176.735C142.314 195.7 173.063 195.7 192.028 176.735Z" fill="white"/>
<path opacity="0.4" d="M175.399 97.1592L111.476 157.351C111.476 157.351 115.879 168.487 119.885 172.878L188.583 104.922C188.583 104.922 182.714 99.6808 175.399 97.1656V97.1592Z" fill="white"/>
<path opacity="0.4" d="M194.842 111.463L123.297 176.679C123.297 176.679 124.417 178.465 129.575 181.799L200.206 118.785C200.206 118.785 199.386 116.238 194.842 111.457V111.463Z" fill="white"/>
<path d="M156.487 99.105V104.903H155.412V100.007H154.19V99.105H156.494H156.487Z" fill="#263238"/>
<path d="M161.838 103.994V104.903H157.562V104.18L159.866 101.991C160.129 101.742 160.302 101.524 160.391 101.338C160.481 101.153 160.526 100.967 160.526 100.788C160.526 100.519 160.436 100.308 160.25 100.167C160.065 100.026 159.802 99.9496 159.444 99.9496C158.855 99.9496 158.401 100.148 158.087 100.551L157.332 99.9688C157.556 99.668 157.863 99.4312 158.247 99.2584C158.631 99.092 159.06 99.0088 159.534 99.0088C160.161 99.0088 160.666 99.156 161.044 99.4568C161.422 99.7576 161.607 100.161 161.607 100.673C161.607 100.986 161.543 101.281 161.409 101.556C161.274 101.831 161.025 102.145 160.647 102.497L159.098 103.969H161.831L161.838 103.994Z" fill="#263238"/>
<path d="M158.145 181.882C158.445 182.03 158.682 182.234 158.855 182.51C159.028 182.778 159.111 183.092 159.111 183.444C159.111 183.822 159.015 184.148 158.829 184.436C158.644 184.718 158.388 184.942 158.068 185.095C157.748 185.249 157.389 185.326 156.993 185.326C156.199 185.326 155.578 185.076 155.143 184.577C154.701 184.078 154.484 183.367 154.484 182.439C154.484 181.786 154.605 181.23 154.842 180.769C155.079 180.308 155.412 179.956 155.841 179.719C156.269 179.476 156.762 179.361 157.325 179.361C157.626 179.361 157.901 179.393 158.164 179.457C158.426 179.521 158.657 179.61 158.849 179.732L158.452 180.545C158.164 180.359 157.799 180.263 157.351 180.263C156.794 180.263 156.359 180.436 156.045 180.775C155.732 181.121 155.572 181.614 155.572 182.26C155.745 182.068 155.962 181.921 156.225 181.818C156.487 181.716 156.788 181.665 157.121 181.665C157.505 181.665 157.844 181.735 158.151 181.882H158.145ZM157.754 184.212C157.965 184.033 158.068 183.796 158.068 183.495C158.068 183.194 157.965 182.951 157.754 182.772C157.543 182.593 157.261 182.51 156.909 182.51C156.557 182.51 156.276 182.606 156.058 182.791C155.841 182.977 155.732 183.22 155.732 183.502C155.732 183.783 155.841 184.014 156.052 184.199C156.263 184.385 156.557 184.474 156.935 184.474C157.274 184.474 157.543 184.385 157.754 184.206V184.212Z" fill="#263238"/>
<path d="M178.17 106.126V111.924H177.095V107.028H175.866V106.126H178.17Z" fill="#263238"/>
<path d="M178.637 176.18C179.028 176.5 179.226 176.929 179.226 177.479C179.226 177.825 179.143 178.145 178.97 178.426C178.797 178.708 178.541 178.932 178.202 179.098C177.857 179.265 177.434 179.348 176.935 179.348C176.519 179.348 176.122 179.29 175.732 179.169C175.348 179.047 175.021 178.887 174.753 178.676L175.207 177.838C175.425 178.017 175.681 178.151 175.981 178.254C176.282 178.356 176.596 178.407 176.916 178.407C177.3 178.407 177.594 178.33 177.812 178.17C178.029 178.01 178.138 177.799 178.138 177.518C178.138 177.217 178.023 176.993 177.786 176.846C177.549 176.692 177.153 176.615 176.583 176.615H175.181L175.482 173.46H178.887V174.362H176.391L176.27 175.706H176.826C177.645 175.706 178.247 175.866 178.637 176.18Z" fill="#263238"/>
<path d="M136.98 106.126V111.924H135.905V107.028H134.682V106.126H136.986H136.98Z" fill="#263238"/>
<path d="M140.135 106.126V111.924H139.06V107.028H137.831V106.126H140.135Z" fill="#263238"/>
<path d="M136.98 173.46V179.258H135.905V174.362H134.682V173.46H136.986H136.98Z" fill="#263238"/>
<path d="M140.135 173.46V179.258H139.06V174.362H137.831V173.46H140.135Z" fill="#263238"/>
<path d="M192.788 123.63V124.538H188.513V123.815L190.817 121.626C191.079 121.377 191.252 121.159 191.342 120.974C191.431 120.788 191.476 120.602 191.476 120.423C191.476 120.154 191.386 119.943 191.201 119.802C191.015 119.662 190.753 119.585 190.394 119.585C189.806 119.585 189.351 119.783 189.038 120.186L188.282 119.604C188.506 119.303 188.814 119.066 189.198 118.894C189.582 118.727 190.01 118.644 190.484 118.644C191.111 118.644 191.617 118.791 191.994 119.092C192.372 119.393 192.558 119.796 192.558 120.308C192.558 120.622 192.494 120.916 192.359 121.191C192.225 121.466 191.975 121.78 191.598 122.132L190.049 123.604H192.782L192.788 123.63Z" fill="#263238"/>
<path d="M193.934 163.278H192.91V164.596H191.866V163.278H188.686V162.529L191.54 158.791H192.692L189.998 162.362H191.892V161.198H192.903V162.362H193.927V163.271L193.934 163.278Z" fill="#263238"/>
<path d="M123.937 118.74V124.538H122.862V119.642H121.633V118.74H123.937Z" fill="#263238"/>
<path d="M126.266 124.27C125.902 124.033 125.614 123.694 125.402 123.246C125.191 122.798 125.089 122.26 125.089 121.646C125.089 121.031 125.191 120.494 125.402 120.046C125.614 119.598 125.902 119.252 126.266 119.015C126.631 118.779 127.047 118.663 127.508 118.663C127.969 118.663 128.385 118.779 128.756 119.015C129.121 119.252 129.409 119.591 129.62 120.046C129.831 120.494 129.934 121.031 129.934 121.646C129.934 122.26 129.831 122.798 129.62 123.246C129.409 123.694 129.121 124.039 128.756 124.27C128.391 124.507 127.975 124.622 127.508 124.622C127.041 124.622 126.631 124.507 126.266 124.27ZM128.487 123.175C128.724 122.836 128.846 122.324 128.846 121.646C128.846 120.967 128.724 120.455 128.487 120.116C128.25 119.771 127.918 119.604 127.508 119.604C127.098 119.604 126.772 119.777 126.535 120.116C126.292 120.462 126.177 120.967 126.177 121.646C126.177 122.324 126.298 122.836 126.535 123.175C126.772 123.521 127.098 123.687 127.508 123.687C127.918 123.687 128.25 123.515 128.487 123.175Z" fill="#263238"/>
<path d="M126.394 162.017C126.554 162.254 126.638 162.529 126.638 162.843C126.638 163.195 126.542 163.508 126.343 163.771C126.145 164.033 125.87 164.238 125.511 164.379C125.153 164.519 124.737 164.59 124.263 164.59C123.79 164.59 123.374 164.519 123.015 164.379C122.657 164.238 122.382 164.033 122.19 163.771C121.998 163.508 121.902 163.195 121.902 162.843C121.902 162.529 121.978 162.254 122.145 162.017C122.305 161.78 122.535 161.595 122.83 161.46C122.599 161.332 122.42 161.166 122.298 160.961C122.177 160.756 122.113 160.513 122.113 160.244C122.113 159.918 122.202 159.636 122.382 159.393C122.561 159.15 122.817 158.964 123.137 158.83C123.463 158.695 123.841 158.631 124.263 158.631C124.686 158.631 125.07 158.695 125.396 158.83C125.722 158.964 125.978 159.15 126.158 159.393C126.337 159.636 126.433 159.918 126.433 160.244C126.433 160.513 126.369 160.75 126.241 160.955C126.113 161.159 125.934 161.326 125.697 161.46C125.998 161.601 126.234 161.787 126.394 162.017ZM125.204 163.495C125.434 163.329 125.55 163.099 125.55 162.811C125.55 162.523 125.434 162.299 125.204 162.132C124.974 161.966 124.66 161.883 124.257 161.883C123.854 161.883 123.546 161.966 123.322 162.132C123.098 162.299 122.983 162.523 122.983 162.811C122.983 163.099 123.098 163.335 123.322 163.495C123.546 163.662 123.86 163.745 124.257 163.745C124.654 163.745 124.967 163.662 125.204 163.495ZM123.463 159.687C123.265 159.828 123.169 160.033 123.169 160.295C123.169 160.558 123.265 160.743 123.463 160.884C123.662 161.031 123.924 161.102 124.263 161.102C124.602 161.102 124.878 161.031 125.076 160.884C125.274 160.737 125.377 160.539 125.377 160.295C125.377 160.052 125.274 159.835 125.076 159.687C124.871 159.547 124.602 159.47 124.27 159.47C123.937 159.47 123.668 159.54 123.47 159.687H123.463Z" fill="#263238"/>
<path d="M197.85 141.838C198.132 142.138 198.273 142.51 198.273 142.958C198.273 143.297 198.19 143.598 198.017 143.879C197.844 144.154 197.588 144.372 197.242 144.538C196.897 144.698 196.474 144.782 195.982 144.782C195.566 144.782 195.169 144.724 194.785 144.602C194.401 144.481 194.074 144.321 193.806 144.11L194.266 143.271C194.478 143.45 194.734 143.585 195.034 143.687C195.335 143.79 195.649 143.841 195.969 143.841C196.353 143.841 196.647 143.764 196.865 143.604C197.082 143.444 197.191 143.233 197.191 142.964C197.191 142.695 197.089 142.484 196.878 142.33C196.673 142.177 196.353 142.1 195.93 142.1H195.399V141.364L196.718 139.796H194.081V138.894H198.03V139.61L196.622 141.281C197.159 141.345 197.569 141.53 197.85 141.825V141.838Z" fill="#263238"/>
<path d="M119.981 139.559C120.423 140.059 120.641 140.769 120.641 141.697C120.641 142.35 120.519 142.907 120.282 143.367C120.045 143.828 119.713 144.18 119.284 144.417C118.855 144.66 118.362 144.775 117.799 144.775C117.498 144.775 117.223 144.743 116.961 144.679C116.698 144.615 116.468 144.526 116.276 144.404L116.673 143.591C116.961 143.777 117.325 143.873 117.773 143.873C118.33 143.873 118.765 143.7 119.079 143.361C119.393 143.022 119.553 142.523 119.553 141.876C119.38 142.068 119.162 142.215 118.9 142.318C118.637 142.42 118.337 142.471 118.004 142.471C117.62 142.471 117.281 142.401 116.98 142.254C116.679 142.107 116.436 141.902 116.269 141.627C116.097 141.358 116.013 141.044 116.013 140.692C116.013 140.315 116.109 139.988 116.295 139.7C116.481 139.419 116.737 139.195 117.057 139.041C117.377 138.887 117.735 138.811 118.132 138.811C118.925 138.811 119.546 139.06 119.981 139.553V139.559ZM119.06 141.345C119.277 141.159 119.386 140.923 119.386 140.635C119.386 140.347 119.277 140.123 119.066 139.937C118.855 139.751 118.561 139.662 118.183 139.662C117.844 139.662 117.575 139.751 117.364 139.931C117.153 140.11 117.05 140.347 117.05 140.647C117.05 140.948 117.153 141.191 117.364 141.371C117.575 141.55 117.857 141.633 118.209 141.633C118.561 141.633 118.842 141.537 119.06 141.351V141.345Z" fill="#263238"/>
<path d="M156.66 142.503L157.729 110.996H159.226L160.999 142.503H156.66Z" fill="#263238"/>
<path d="M156.935 144.615L142.222 129.953L143.22 128.839L159.841 141.39L156.935 144.615Z" fill="#263238"/>
<path d="M148.967 149.242L183.335 129.716L149.69 150.292L148.967 149.242Z" fill="#3A0CA3"/>
<path d="M163.386 142.503C163.386 145.018 161.345 147.06 158.83 147.06C156.314 147.06 154.273 145.018 154.273 142.503C154.273 139.988 156.314 137.946 158.83 137.946C161.345 137.946 163.386 139.988 163.386 142.503Z" fill="#3A0CA3"/>
<path opacity="0.3" d="M163.386 142.503C163.386 145.018 161.345 147.06 158.83 147.06C156.314 147.06 154.273 145.018 154.273 142.503C154.273 139.988 156.314 137.946 158.83 137.946C161.345 137.946 163.386 139.988 163.386 142.503Z" fill="black"/>
<path d="M121.569 188.57C121.569 188.57 113.038 204.942 115.918 205.178C118.798 205.415 128.788 193.806 128.788 193.806C128.788 193.806 127.719 188.058 121.575 188.57H121.569Z" fill="#3A0CA3"/>
<path d="M193.486 186.983C193.486 186.983 202.017 203.354 199.137 203.591C196.257 203.828 186.266 192.218 186.266 192.218C186.266 192.218 187.335 186.471 193.479 186.983H193.486Z" fill="#3A0CA3"/>
<path d="M100.698 114.855C101.012 114.478 137.025 81.8759 137.025 81.8759C137.025 81.8759 123.233 69.9335 107.073 85.9975C90.9129 102.055 100.698 114.855 100.698 114.855Z" fill="#3A0CA3"/>
<path d="M137.025 81.876C138.478 83.4568 131.13 91.828 121.166 100.954C111.207 110.081 101.959 116.199 100.506 114.612C99.0536 113.031 105.953 104.346 115.918 95.22C125.876 86.0936 135.572 80.2888 137.025 81.8696V81.876Z" fill="#3A0CA3"/>
<path opacity="0.3" d="M137.025 81.876C138.478 83.4568 131.13 91.828 121.166 100.954C111.207 110.081 101.959 116.199 100.506 114.612C99.0536 113.031 105.953 104.346 115.918 95.22C125.876 86.0936 135.572 80.2888 137.025 81.8696V81.876Z" fill="black"/>
<path d="M113.792 86.9171L108.427 91.8333L120.992 105.545L126.357 100.629L113.792 86.9171Z" fill="#3A0CA3"/>
<path d="M108.596 91.8343C111.466 91.8343 113.793 89.5076 113.793 86.6375C113.793 83.7674 111.466 81.4407 108.596 81.4407C105.726 81.4407 103.399 83.7674 103.399 86.6375C103.399 89.5076 105.726 91.8343 108.596 91.8343Z" fill="#3A0CA3"/>
<path opacity="0.4" d="M107.047 86.4775L104.11 89.2423C103.694 89.7543 96.4681 100.007 102.491 109.665C104.775 106.561 107.476 103.514 110.439 100.506C107.316 97.9847 103.732 93.3319 107.047 86.4775Z" fill="white"/>
<path opacity="0.2" d="M113.556 97.4409L118.951 92.5513L120.154 93.8697L115.041 99.0665L113.556 97.4409Z" fill="black"/>
<path opacity="0.3" d="M104.11 89.2424L111.45 82.2984L110.862 81.9656L103.777 88.5704L104.11 89.2424Z" fill="black"/>
<path d="M176.487 81.4535C176.903 81.7095 214.343 112.666 214.343 112.666C214.343 112.666 224.18 97.2999 205.966 83.6167C187.751 69.9335 176.487 81.4535 176.487 81.4535Z" fill="#3A0CA3"/>
<path d="M214.343 112.667C212.986 114.331 203.649 108.263 193.185 99.713C182.721 91.169 175.342 82.8938 176.698 81.2298C178.055 79.5658 187.636 85.1466 198.1 93.6906C208.564 102.235 215.7 110.996 214.343 112.66V112.667Z" fill="#3A0CA3"/>
<path opacity="0.3" d="M214.343 112.667C212.986 114.331 203.649 108.263 193.185 99.713C182.721 91.169 175.342 82.8938 176.698 81.2298C178.055 79.5658 187.636 85.1466 198.1 93.6906C208.564 102.235 215.7 110.996 214.343 112.66V112.667Z" fill="black"/>
<path d="M206.012 90.399L200.376 85.7959L188.611 100.2L194.247 104.803L206.012 90.399Z" fill="#3A0CA3"/>
<path d="M206.298 90.3559C203.457 90.7655 200.826 88.8007 200.41 85.9591C200.001 83.1175 201.966 80.4871 204.807 80.0711C207.649 79.6615 210.279 81.6263 210.695 84.4679C211.105 87.3095 209.14 89.9399 206.298 90.3559Z" fill="#3A0CA3"/>
<path opacity="0.4" d="M205.486 83.6617L202.324 81.1529C201.754 80.8137 190.574 75.1369 181.882 82.4841C185.281 84.2953 188.686 86.5353 192.09 89.0377C194.132 85.5817 198.228 81.3705 205.486 83.6617Z" fill="white"/>
<path opacity="0.2" d="M195.572 91.6746L201.185 96.3082L200.058 97.6906L194.183 93.377L195.572 91.6746Z" fill="black"/>
<path opacity="0.3" d="M202.33 81.1465L210.26 87.4121L210.503 86.7849L202.945 80.7241L202.33 81.1465Z" fill="black"/>
<path opacity="0.3" d="M120.404 104.903C120.404 104.903 124.397 101.358 125.94 100.174L125.434 99.6233L119.949 104.417L120.397 104.91L120.404 104.903Z" fill="black"/>
<path opacity="0.3" d="M189.031 99.732C189.031 99.732 193.159 103.118 194.574 104.462L195.034 103.879L189.441 99.2136L189.025 99.732H189.031Z" fill="black"/>
<path opacity="0.3" d="M41.2231 115.604C41.2231 115.604 72.5703 119.854 79.1623 124.474C85.7543 129.102 99.1815 147.233 99.1815 147.233C99.1815 147.233 82.7079 129.844 76.1159 125.786C69.5239 121.729 41.2231 115.604 41.2231 115.604Z" fill="black"/>
<path opacity="0.3" d="M54.0425 124.25C54.0425 124.25 51.1625 133.268 58.2985 133.018C65.4409 132.769 68.3209 129.639 68.3209 129.639C68.3209 129.639 66.3177 137.908 71.7001 137.78C77.0889 137.652 80.8457 134.273 80.8457 134.273C80.8457 134.273 73.0761 140.897 69.3193 139.342C65.5625 137.78 67.1561 132.398 67.1561 132.398C67.1561 132.398 58.3561 136.673 54.7209 133.678C51.0857 130.682 51.7961 129.313 54.0361 124.257L54.0425 124.25Z" fill="black"/>
<path opacity="0.3" d="M274.164 113.895C274.164 113.895 242.817 118.145 236.225 122.766C229.633 127.393 216.206 145.524 216.206 145.524C216.206 145.524 232.679 128.135 239.271 124.078C245.863 120.02 274.164 113.895 274.164 113.895Z" fill="black"/>
<path opacity="0.3" d="M261.345 122.548C261.345 122.548 264.225 131.566 257.089 131.316C249.946 131.066 247.066 127.937 247.066 127.937C247.066 127.937 249.07 136.206 243.687 136.078C238.298 135.95 234.542 132.57 234.542 132.57C234.542 132.57 242.311 139.194 246.068 137.639C249.825 136.078 248.231 130.695 248.231 130.695C248.231 130.695 257.031 134.97 260.666 131.975C264.302 128.98 263.591 127.611 261.351 122.555L261.345 122.548Z" fill="black"/>
<path d="M139.239 90.5353C139.143 90.5353 139.047 90.4777 139.015 90.3753C138.97 90.2537 139.034 90.1129 139.156 90.0681C149.121 86.4009 160.295 85.7353 170.619 88.2057C170.747 88.2377 170.83 88.3657 170.798 88.4937C170.766 88.6217 170.638 88.6985 170.51 88.6729C160.27 86.2217 149.198 86.8809 139.323 90.5161C139.297 90.5289 139.265 90.5289 139.239 90.5289V90.5353Z" fill="#3A0CA3"/>
<path d="M173.543 89.4984C173.543 89.4984 173.498 89.4984 173.479 89.492L171.898 89.044C171.77 89.0056 171.693 88.8776 171.732 88.7496C171.77 88.6216 171.898 88.5448 172.026 88.5832L173.607 89.0312C173.735 89.0696 173.812 89.1976 173.773 89.3256C173.741 89.4344 173.645 89.4984 173.543 89.4984Z" fill="#3A0CA3"/>
</svg>
