<svg width="207" height="28" viewBox="0 0 207 28" fill="none" xmlns="http://www.w3.org/2000/svg">
<path d="M0.64 28V23.88H3.84V28H0.64ZM27.1531 28V25.6L34.2331 9.6H27.3131V7.2H37.6331V9.56L30.2731 25.6H37.5931V28H27.1531ZM65.0541 28C64.0941 28 63.2007 27.76 62.3741 27.28C61.5741 26.8 60.9341 26.1467 60.4541 25.32C60.0007 24.4933 59.7741 23.56 59.7741 22.52V20.44C59.7741 19.1867 60.0807 18.1333 60.6941 17.28C61.3341 16.4267 62.1207 15.8267 63.0541 15.48L68.0141 13.64V11.76C68.0141 11.12 67.8141 10.6 67.4141 10.2C67.0407 9.77333 66.5474 9.56 65.9341 9.56H61.4141V7.2H66.2141C67.6807 7.2 68.8407 7.64 69.6941 8.52C70.5741 9.37333 71.0141 10.5467 71.0141 12.04V28H65.0541ZM68.0141 25.56V16.16L64.4941 17.48C63.8007 17.7467 63.3074 18.1067 63.0141 18.56C62.7474 19.0133 62.6141 19.7333 62.6141 20.72V22.96C62.6141 23.68 62.8807 24.2933 63.4141 24.8C63.9474 25.3067 64.5874 25.56 65.3341 25.56H68.0141ZM95.4234 3.8V0.599998H98.6234V3.8H95.4234ZM95.4234 28V7.2H98.6234V28H95.4234ZM123.431 7.2H125.911L126.271 8.36L127.911 7.88C129.031 7.53333 129.911 7.29333 130.551 7.16C131.218 7 131.845 6.92 132.431 6.92C133.391 6.92 134.098 7.25333 134.551 7.92C135.005 8.58667 135.231 9.45333 135.231 10.52V28H132.031V11.56C132.031 10.7867 131.978 10.2533 131.871 9.96C131.765 9.64 131.498 9.48 131.071 9.48C130.858 9.48 129.378 9.90667 126.631 10.76V28H123.431V7.2ZM163.921 28C162.961 28 162.068 27.76 161.241 27.28C160.441 26.8 159.801 26.1467 159.321 25.32C158.868 24.4933 158.641 23.56 158.641 22.52V20.44C158.641 19.1867 158.948 18.1333 159.561 17.28C160.201 16.4267 160.988 15.8267 161.921 15.48L166.881 13.64V11.76C166.881 11.12 166.681 10.6 166.281 10.2C165.908 9.77333 165.415 9.56 164.801 9.56H160.281V7.2H165.081C166.548 7.2 167.708 7.64 168.561 8.52C169.441 9.37333 169.881 10.5467 169.881 12.04V28H163.921ZM166.881 25.56V16.16L163.361 17.48C162.668 17.7467 162.175 18.1067 161.881 18.56C161.615 19.0133 161.481 19.7333 161.481 20.72V22.96C161.481 23.68 161.748 24.2933 162.281 24.8C162.815 25.3067 163.455 25.56 164.201 25.56H166.881ZM194.291 -1.90735e-06H197.491V6.24L202.851 8.12C203.784 8.44 204.557 9 205.171 9.8C205.811 10.5733 206.131 11.5333 206.131 12.68V22.96C206.131 24.4 205.624 25.6 204.611 26.56C203.597 27.52 202.357 28 200.891 28H194.291V-1.90735e-06ZM200.211 25.6C200.957 25.6 201.597 25.3467 202.131 24.84C202.664 24.3333 202.931 23.7067 202.931 22.96V13.32C202.931 12.3067 202.784 11.5733 202.491 11.12C202.224 10.64 201.744 10.2933 201.051 10.08L197.491 8.88V25.6H200.211Z" fill="#E63946"/>
</svg>
